<svg width="32" height="32" viewBox="0 0 32 32" fill="none" xmlns="http://www.w3.org/2000/svg">
<path fill-rule="evenodd" clip-rule="evenodd" d="M17.136 2.06247C20.3185 2.38073 23.2871 3.81048 25.52 6.10047C27.9526 8.57167 29.3908 11.8516 29.5605 15.3151C29.7302 18.7785 28.6194 22.1833 26.44 24.8805C24.4355 27.3721 21.6225 29.084 18.4885 29.7196C15.3544 30.3551 12.0968 29.8743 9.27999 28.3605C6.45715 26.8138 4.25345 24.3418 3.03999 21.3605C1.82111 18.3639 1.65887 15.0416 2.57999 11.9405C3.49914 8.85146 5.4559 6.17416 8.11999 4.36047C10.7617 2.5583 13.954 1.74465 17.136 2.06247ZM18.08 27.7605C20.7657 27.2157 23.1774 25.7517 24.9 23.6205C26.7652 21.3024 27.7142 18.38 27.5667 15.4083C27.4192 12.4366 26.1856 9.62252 24.1 7.50047C22.1897 5.5505 19.6549 4.33392 16.9386 4.06338C14.2223 3.79285 11.4973 4.48557 9.23999 6.02047C7.54087 7.19127 6.16879 8.77648 5.25374 10.6259C4.3387 12.4754 3.91099 14.5278 4.01113 16.5888C4.11128 18.6499 4.73597 20.6512 5.82601 22.4032C6.91605 24.1552 8.43536 25.5999 10.24 26.6005C12.6366 27.8939 15.4115 28.3045 18.08 27.7605ZM14.75 12.0005H17.25V10.0005H14.75V12.0005ZM17.25 14.0005V22.0005H14.75V14.0005H17.25Z" fill="#030303"/>
</svg>
