<svg width="32" height="32" viewBox="0 0 32 32" fill="none" xmlns="http://www.w3.org/2000/svg">
<path fill-rule="evenodd" clip-rule="evenodd" d="M11 12C11 9.23858 13.2386 7 16 7C18.7614 7 21 9.23858 21 12C21 14.7614 18.7614 17 16 17C13.2386 17 11 14.7614 11 12ZM16 9C14.3432 9 13 10.3431 13 12C13 13.6569 14.3432 15 16 15C17.6569 15 19 13.6569 19 12C19 10.3431 17.6569 9 16 9Z" fill="#030303"/>
<path fill-rule="evenodd" clip-rule="evenodd" d="M7.27522 10.8363C7.64023 6.40804 11.3407 3 15.784 3H16.216C20.6593 3 24.3598 6.40804 24.7248 10.8363C24.9205 13.21 24.1872 15.567 22.6796 17.4108L17.8865 23.2726C16.9115 24.4651 15.0885 24.465 14.1135 23.2726L9.32043 17.4108C7.81278 15.567 7.07956 13.21 7.27522 10.8363ZM15.784 5C12.3816 5 9.54797 7.60968 9.26846 11.0006C9.11537 12.8579 9.68907 14.7021 10.8687 16.1448L15.6618 22.0066C15.8366 22.2204 16.1634 22.2204 16.3382 22.0066L21.1313 16.1448C22.311 14.7021 22.8847 12.8579 22.7316 11.0006C22.4521 7.60968 19.6184 5 16.216 5H15.784Z" fill="#030303"/>
<path d="M10.2278 21.7805C10.4748 21.2866 10.2745 20.6859 9.78055 20.4389C9.28657 20.1919 8.6859 20.3921 8.43891 20.8861L5.77225 26.2195C5.61725 26.5294 5.63382 26.8976 5.81602 27.1924C5.99823 27.4872 6.3201 27.6667 6.66667 27.6667H25.3333C25.6799 27.6667 26.0018 27.4872 26.184 27.1924C26.3662 26.8976 26.3828 26.5294 26.2278 26.2195L23.5611 20.8861C23.3141 20.3921 22.7134 20.1919 22.2195 20.4389C21.7255 20.6859 21.5253 21.2866 21.7722 21.7805L23.7153 25.6667H8.28471L10.2278 21.7805Z" fill="#030303"/>
</svg>
