<svg width="23" height="28" viewBox="0 0 23 28" fill="none" xmlns="http://www.w3.org/2000/svg">
<path d="M19.0736 14.7629C19.0616 12.5657 20.0554 10.9072 22.0671 9.68589C20.9415 8.07537 19.2412 7.18929 16.9961 7.01566C14.8707 6.84803 12.5477 8.25498 11.6975 8.25498C10.7995 8.25498 8.73991 7.07553 7.1234 7.07553C3.78262 7.12942 0.2323 9.73977 0.2323 15.0503C0.2323 16.6189 0.519678 18.2394 1.09444 19.9118C1.86078 22.109 4.6268 27.4974 7.51256 27.4076C9.0213 27.3717 10.087 26.3359 12.0507 26.3359C13.9546 26.3359 14.9425 27.4076 16.6249 27.4076C19.5346 27.3657 22.0372 22.4683 22.7676 20.265C18.864 18.427 19.0736 14.8767 19.0736 14.7629ZM15.6849 4.93217C17.3194 2.99236 17.1697 1.22618 17.1218 0.591553C15.6789 0.675372 14.0085 1.57343 13.0566 2.68104C12.0088 3.86647 11.3922 5.3333 11.5239 6.98573C13.0865 7.10547 14.5114 6.3032 15.6849 4.93217Z" fill="black"/>
</svg>
