<svg width="32" height="32" viewBox="0 0 32 32" fill="none" xmlns="http://www.w3.org/2000/svg">
<path d="M26.6667 19.9998V25.3332C26.6667 27.5332 24.8667 29.3332 22.6667 29.3332H9.33334C7.13334 29.3332 5.33334 27.5332 5.33334 25.3332V19.9998C5.33334 19.2665 5.93334 18.6665 6.66667 18.6665H9.33334C11.1733 18.6665 12.6667 20.1598 12.6667 21.9998C12.6667 22.3732 12.96 22.6665 13.3333 22.6665C13.7067 22.6665 14 22.3732 14 21.9998C14 20.1598 15.4933 18.6665 17.3333 18.6665H25.3333C26.0667 18.6665 26.6667 19.2665 26.6667 19.9998Z" fill="#FFAE3E"/>
<path d="M26.6667 13.3332V14.6665C26.6667 15.3998 26.0667 15.9998 25.3333 15.9998H6.66667C5.93334 15.9998 5.33334 15.3998 5.33334 14.6665V13.3332C5.33334 7.45317 10.12 2.6665 16 2.6665C18.8533 2.6665 21.5333 3.77317 23.5467 5.7865C25.56 7.79984 26.6667 10.4798 26.6667 13.3332Z" fill="#FFAE3E"/>
<path d="M29.3333 16.6663V17.9997C29.3333 19.8397 27.84 21.333 26 21.333H17.3333C16.96 21.333 16.6667 21.6263 16.6667 21.9997C16.6667 23.8397 15.1733 25.333 13.3333 25.333C11.4933 25.333 10 23.8397 10 21.9997C10 21.6263 9.70667 21.333 9.33333 21.333H6C4.16 21.333 2.66667 19.8397 2.66667 17.9997V16.6663C2.66667 14.8263 4.16 13.333 6 13.333H26C27.84 13.333 29.3333 14.8263 29.3333 16.6663Z" fill="#D34A4B"/>
</svg>
