<svg width="32" height="32" viewBox="0 0 32 32" fill="none" xmlns="http://www.w3.org/2000/svg">
<path d="M25.3333 6.6665H24H7.99999C7.26666 6.6665 6.66666 7.2665 6.66666 7.99984V14.6665C6.66666 18.3465 9.65332 21.3332 13.3333 21.3332H18.6667C22.3467 21.3332 25.3333 18.3465 25.3333 14.6665C27.5391 14.6665 29.3333 12.8722 29.3333 10.6665C29.3333 8.46077 27.5391 6.6665 25.3333 6.6665ZM25.3333 11.9998V9.33317C26.0684 9.33317 26.6667 9.93077 26.6667 10.6665C26.6667 11.4022 26.0684 11.9998 25.3333 11.9998Z" fill="#D34A4B"/>
<path d="M29.3333 19.9998V21.3332C29.3333 23.5332 27.5333 25.3332 25.3333 25.3332H6.66666C4.46666 25.3332 2.66666 23.5332 2.66666 21.3332V19.9998C2.66666 19.2665 3.26666 18.6665 4 18.6665H28C28.7333 18.6665 29.3333 19.2665 29.3333 19.9998Z" fill="#E5893D"/>
</svg>
