<svg width="145" height="149" viewBox="0 0 145 149" fill="none" xmlns="http://www.w3.org/2000/svg">
<path d="M14 70.3L38.8795 68L63.5 71.5L90 90L114 70.3H132V91H14V70.3Z" fill="#FF4B4E"/>
<path d="M90.625 93.1253L111.04 72.1474C112.23 70.9247 113.643 69.9549 115.198 69.2934C116.753 68.6319 118.419 68.2916 120.102 68.292H120.833C124.038 68.292 127.111 69.6002 129.378 71.9288C131.644 74.2573 132.917 77.4156 132.917 80.7087C132.917 84.0018 131.644 87.16 129.378 89.4886C127.111 91.8171 124.038 93.1253 120.833 93.1253H24.1667C20.962 93.1253 17.8885 91.8171 15.6225 89.4886C13.3564 87.16 12.0833 84.0018 12.0833 80.7087C12.0833 77.4156 13.3564 74.2573 15.6225 71.9288C17.8885 69.6002 20.962 68.292 24.1667 68.292H51.4448C61.0572 68.2925 70.2759 72.2161 77.0735 79.2L90.625 93.1253ZM18.125 93.1253H126.875V105.542C126.875 110.482 124.965 115.219 121.566 118.712C118.167 122.205 113.557 124.167 108.75 124.167H36.25C31.443 124.167 26.8328 122.205 23.4337 118.712C20.0346 115.219 18.125 110.482 18.125 105.542V93.1253Z" stroke="black" stroke-width="5.33333" stroke-linecap="round" stroke-linejoin="round"/>
<path d="M72.5 24.8335C44.5694 24.8335 21.5567 35.7353 18.4754 62.0835C18.0767 65.4981 20.8317 68.2918 24.1667 68.2918H120.833C124.168 68.2918 126.923 65.4981 126.525 62.0835C123.443 35.7353 100.431 24.8335 72.5 24.8335Z" stroke="black" stroke-width="5.33333" stroke-linecap="round" stroke-linejoin="round"/>
<path d="M72.7813 43.3125C73.2205 43.3125 73.6418 43.138 73.9524 42.8274C74.263 42.5168 74.4375 42.0955 74.4375 41.6562C74.4375 41.217 74.263 40.7957 73.9524 40.4851C73.6418 40.1745 73.2205 40 72.7813 40C72.342 40 71.9207 40.1745 71.6101 40.4851C71.2995 40.7957 71.125 41.217 71.125 41.6562C71.125 42.0955 71.2995 42.5168 71.6101 42.8274C71.9207 43.138 72.342 43.3125 72.7813 43.3125Z" fill="#231F20"/>
<path d="M66.1563 54.9062C66.5955 54.9062 67.0168 54.7318 67.3274 54.4211C67.638 54.1105 67.8125 53.6893 67.8125 53.25C67.8125 52.8107 67.638 52.3895 67.3274 52.0789C67.0168 51.7682 66.5955 51.5938 66.1563 51.5938C65.717 51.5938 65.2957 51.7682 64.9851 52.0789C64.6745 52.3895 64.5 52.8107 64.5 53.25C64.5 53.6893 64.6745 54.1105 64.9851 54.4211C65.2957 54.7318 65.717 54.9062 66.1563 54.9062Z" fill="#231F20"/>
<path d="M52.9063 54.9062C53.3455 54.9062 53.7668 54.7318 54.0774 54.4211C54.388 54.1105 54.5625 53.6893 54.5625 53.25C54.5625 52.8107 54.388 52.3895 54.0774 52.0789C53.7668 51.7682 53.3455 51.5938 52.9063 51.5938C52.467 51.5938 52.0457 51.7682 51.7351 52.0789C51.4245 52.3895 51.25 52.8107 51.25 53.25C51.25 53.6893 51.4245 54.1105 51.7351 54.4211C52.0457 54.7318 52.467 54.9062 52.9063 54.9062Z" fill="#231F20"/>
<path d="M39.6563 54.9062C40.0955 54.9062 40.5168 54.7318 40.8274 54.4211C41.138 54.1105 41.3125 53.6893 41.3125 53.25C41.3125 52.8107 41.138 52.3895 40.8274 52.0789C40.5168 51.7682 40.0955 51.5938 39.6563 51.5938C39.217 51.5938 38.7957 51.7682 38.4851 52.0789C38.1745 52.3895 38 52.8107 38 53.25C38 53.6893 38.1745 54.1105 38.4851 54.4211C38.7957 54.7318 39.217 54.9062 39.6563 54.9062Z" fill="#231F20"/>
<path d="M79.4063 54.9062C79.8455 54.9062 80.2668 54.7318 80.5774 54.4211C80.888 54.1105 81.0625 53.6893 81.0625 53.25C81.0625 52.8107 80.888 52.3895 80.5774 52.0789C80.2668 51.7682 79.8455 51.5938 79.4063 51.5938C78.967 51.5938 78.5457 51.7682 78.2351 52.0789C77.9245 52.3895 77.75 52.8107 77.75 53.25C77.75 53.6893 77.9245 54.1105 78.2351 54.4211C78.5457 54.7318 78.967 54.9062 79.4063 54.9062Z" fill="#231F20"/>
<path d="M92.6563 54.9062C93.0955 54.9062 93.5168 54.7318 93.8274 54.4211C94.138 54.1105 94.3125 53.6893 94.3125 53.25C94.3125 52.8107 94.138 52.3895 93.8274 52.0789C93.5168 51.7682 93.0955 51.5938 92.6563 51.5938C92.217 51.5938 91.7957 51.7682 91.4851 52.0789C91.1745 52.3895 91 52.8107 91 53.25C91 53.6893 91.1745 54.1105 91.4851 54.4211C91.7957 54.7318 92.217 54.9062 92.6563 54.9062Z" fill="#231F20"/>
<path d="M105.906 54.9062C106.346 54.9062 106.767 54.7318 107.077 54.4211C107.388 54.1105 107.563 53.6893 107.563 53.25C107.563 52.8107 107.388 52.3895 107.077 52.0789C106.767 51.7682 106.346 51.5938 105.906 51.5938C105.467 51.5938 105.046 51.7682 104.735 52.0789C104.425 52.3895 104.25 52.8107 104.25 53.25C104.25 53.6893 104.425 54.1105 104.735 54.4211C105.046 54.7318 105.467 54.9062 105.906 54.9062Z" fill="#231F20"/>
<path d="M59.5313 43.3125C59.9705 43.3125 60.3918 43.138 60.7024 42.8274C61.013 42.5168 61.1875 42.0955 61.1875 41.6562C61.1875 41.217 61.013 40.7957 60.7024 40.4851C60.3918 40.1745 59.9705 40 59.5313 40C59.092 40 58.6707 40.1745 58.3601 40.4851C58.0495 40.7957 57.875 41.217 57.875 41.6562C57.875 42.0955 58.0495 42.5168 58.3601 42.8274C58.6707 43.138 59.092 43.3125 59.5313 43.3125Z" fill="#231F20"/>
<path d="M46.2813 43.3125C46.7205 43.3125 47.1418 43.138 47.4524 42.8274C47.763 42.5168 47.9375 42.0955 47.9375 41.6562C47.9375 41.217 47.763 40.7957 47.4524 40.4851C47.1418 40.1745 46.7205 40 46.2813 40C45.842 40 45.4207 40.1745 45.1101 40.4851C44.7995 40.7957 44.625 41.217 44.625 41.6562C44.625 42.0955 44.7995 42.5168 45.1101 42.8274C45.4207 43.138 45.842 43.3125 46.2813 43.3125Z" fill="#231F20"/>
<path d="M86.0313 43.3125C86.4705 43.3125 86.8918 43.138 87.2024 42.8274C87.513 42.5168 87.6875 42.0955 87.6875 41.6562C87.6875 41.217 87.513 40.7957 87.2024 40.4851C86.8918 40.1745 86.4705 40 86.0313 40C85.592 40 85.1707 40.1745 84.8601 40.4851C84.5495 40.7957 84.375 41.217 84.375 41.6562C84.375 42.0955 84.5495 42.5168 84.8601 42.8274C85.1707 43.138 85.592 43.3125 86.0313 43.3125Z" fill="#231F20"/>
<path d="M99.2813 43.3125C99.7205 43.3125 100.142 43.138 100.452 42.8274C100.763 42.5168 100.938 42.0955 100.938 41.6562C100.938 41.217 100.763 40.7957 100.452 40.4851C100.142 40.1745 99.7205 40 99.2813 40C98.842 40 98.4207 40.1745 98.1101 40.4851C97.7995 40.7957 97.625 41.217 97.625 41.6562C97.625 42.0955 97.7995 42.5168 98.1101 42.8274C98.4207 43.138 98.842 43.3125 99.2813 43.3125Z" fill="#231F20"/>
</svg>
