<svg width="34" height="39" viewBox="0 0 34 39" fill="none" xmlns="http://www.w3.org/2000/svg">
<path d="M11.9 8.53125C7.96045 8.53125 4.60417 11.9101 4.60417 16.2984C4.60417 19.3257 5.83999 21.8744 7.47786 23.9857C9.1101 26.0897 11.216 27.8558 13.1197 29.3339L16.4044 31.8843C16.7641 32.1636 17.2359 32.1636 17.5956 31.8843L20.8803 29.3339C22.784 27.8558 24.8899 26.0897 26.5221 23.9857C28.16 21.8744 29.3958 19.3257 29.3958 16.2984C29.3958 11.9101 26.0395 8.53125 22.1 8.53125C20.0692 8.53125 18.2823 9.62348 17 11.0367C15.7177 9.62348 13.9308 8.53125 11.9 8.53125Z" fill="#FF4B4E"/>
</svg>
