<svg width="34" height="39" viewBox="0 0 34 39" fill="none" xmlns="http://www.w3.org/2000/svg">
<path fill-rule="evenodd" clip-rule="evenodd" d="M4.60417 16.2984C4.60417 11.9101 7.96045 8.53125 11.9 8.53125C13.9308 8.53125 15.7177 9.62348 17 11.0367C18.2823 9.62348 20.0692 8.53125 22.1 8.53125C26.0395 8.53125 29.3958 11.9101 29.3958 16.2984C29.3958 19.3045 28.2783 21.948 26.7299 24.1825C25.1843 26.4132 23.1624 28.3064 21.2266 29.8447C20.4872 30.4323 19.7392 30.9743 19.0546 31.3742C18.4117 31.7497 17.6726 32.0938 17 32.0938C16.3274 32.0938 15.5883 31.7497 14.9455 31.3742C14.2608 30.9743 13.5128 30.4323 12.7734 29.8447C10.8376 28.3064 8.81574 26.4132 7.27008 24.1825C5.72175 21.948 4.60417 19.3045 4.60417 16.2984ZM11.9 10.9688C8.9544 10.9688 6.72917 13.4535 6.72917 16.2984C6.72917 18.5791 7.5732 20.7025 8.93363 22.6659C10.2967 24.6331 12.1308 26.3688 13.9836 27.8411C14.6846 28.3982 15.345 28.8722 15.9098 29.2022C16.5164 29.5565 16.8678 29.6562 17 29.6562C17.1322 29.6562 17.4836 29.5565 18.0902 29.2022C18.655 28.8722 19.3154 28.3982 20.0165 27.8411C21.8692 26.3687 23.7033 24.6331 25.0664 22.6659C26.4268 20.7025 27.2708 18.5791 27.2708 16.2984C27.2708 13.4535 25.0456 10.9688 22.1 10.9688C20.4083 10.9688 18.8286 12.1281 17.8423 13.5995C17.6412 13.8995 17.33 14.0754 17 14.0754C16.67 14.0754 16.3588 13.8995 16.1577 13.5995C15.1714 12.1281 13.5917 10.9688 11.9 10.9688Z" fill="#827D89"/>
</svg>
