<svg width="32" height="32" viewBox="0 0 32 32" fill="none" xmlns="http://www.w3.org/2000/svg">
<path d="M16 28C22.6274 28 28 22.6274 28 16C28 9.37258 22.6274 4 16 4C9.37258 4 4 9.37258 4 16C4 22.6274 9.37258 28 16 28Z" stroke="#030303" stroke-width="1.5" stroke-linecap="round" stroke-linejoin="round"/>
<path d="M24 8L19.3 12.7M19.3 12.7C21.0973 14.4987 21.0973 17.5027 19.3 19.3M19.3 12.7C17.5027 10.9027 14.4987 10.9027 12.7 12.7M8 24L12.7 19.3M12.7 19.3C10.9027 17.5027 10.9027 14.4987 12.7 12.7M12.7 19.3C14.4973 21.0973 17.5013 21.0973 19.3 19.3M8 8L12.7 12.7M24 24L19.3 19.3" stroke="#030303" stroke-width="1.5" stroke-linecap="round" stroke-linejoin="round"/>
</svg>
