<svg width="32" height="32" viewBox="0 0 32 32" fill="none" xmlns="http://www.w3.org/2000/svg">
<g clip-path="url(#clip0_22_112)">
<path d="M30.5333 10.9332V10.7332L27.2 3.4665C27.0978 3.23213 26.9303 3.0321 26.7175 2.89025C26.5047 2.74841 26.2557 2.67074 26 2.6665H6C5.74433 2.67074 5.49526 2.74841 5.2825 2.89025C5.06974 3.0321 4.90225 3.23213 4.8 3.4665L1.53333 10.7332V10.9332C1.37184 11.5235 1.34797 12.143 1.46355 12.744C1.57912 13.345 1.83107 13.9115 2.2 14.3998C2.69964 14.9948 3.34183 15.4535 4.06667 15.7332V27.3332C4.05736 27.5983 4.10272 27.8626 4.19993 28.1094C4.29715 28.3563 4.44413 28.5805 4.63174 28.7681C4.81934 28.9557 5.04356 29.1027 5.29042 29.1999C5.53728 29.2971 5.80152 29.3425 6.06667 29.3332H26C26.2652 29.3425 26.5294 29.2971 26.7762 29.1999C27.0231 29.1027 27.2473 28.9557 27.4349 28.7681C27.6225 28.5805 27.7695 28.3563 27.8667 28.1094C27.9639 27.8626 28.0093 27.5983 28 27.3332V15.7332C28.7248 15.4535 29.367 14.9948 29.8667 14.3998C30.2356 13.9115 30.4875 13.345 30.6031 12.744C30.7187 12.143 30.6948 11.5235 30.5333 10.9332ZM4 11.7332L6.86667 5.33317H25.1333L28 11.7332C28.0285 11.9092 28.0194 12.0893 27.9735 12.2616C27.9275 12.434 27.8457 12.5947 27.7333 12.7332C27.5995 12.9256 27.4196 13.0814 27.2099 13.1863C27.0002 13.2911 26.7676 13.3416 26.5333 13.3332H25.9333C25.7407 13.3421 25.5482 13.313 25.3668 13.2475C25.1854 13.1819 25.0187 13.0812 24.8763 12.9512C24.7339 12.8212 24.6185 12.6643 24.5368 12.4896C24.455 12.3149 24.4086 12.1258 24.4 11.9332C24.4 11.5795 24.2595 11.2404 24.0095 10.9904C23.7594 10.7403 23.4203 10.5998 23.0667 10.5998C22.713 10.5998 22.3739 10.7403 22.1239 10.9904C21.8738 11.2404 21.7333 11.5795 21.7333 11.9332C21.7335 12.1228 21.6953 12.3104 21.6208 12.4848C21.5463 12.6591 21.4371 12.8165 21.3 12.9475C21.1629 13.0784 21.0005 13.1801 20.8229 13.2464C20.6453 13.3127 20.456 13.3422 20.2667 13.3332H18.8C18.6106 13.3422 18.4214 13.3127 18.2437 13.2464C18.0661 13.1801 17.9038 13.0784 17.7667 12.9475C17.6295 12.8165 17.5204 12.6591 17.4459 12.4848C17.3714 12.3104 17.3331 12.1228 17.3333 11.9332C17.3333 11.5795 17.1929 11.2404 16.9428 10.9904C16.6928 10.7403 16.3536 10.5998 16 10.5998C15.6464 10.5998 15.3072 10.7403 15.0572 10.9904C14.8071 11.2404 14.6667 11.5795 14.6667 11.9332C14.6669 12.1228 14.6286 12.3104 14.5541 12.4848C14.4796 12.6591 14.3705 12.8165 14.2333 12.9475C14.0962 13.0784 13.9339 13.1801 13.7563 13.2464C13.5786 13.3127 13.3894 13.3422 13.2 13.3332H11.7333C11.544 13.3422 11.3547 13.3127 11.1771 13.2464C10.9995 13.1801 10.8371 13.0784 10.7 12.9475C10.5629 12.8165 10.4537 12.6591 10.3792 12.4848C10.3048 12.3104 10.2665 12.1228 10.2667 11.9332C10.2667 11.5795 10.1262 11.2404 9.87614 10.9904C9.62609 10.7403 9.28696 10.5998 8.93333 10.5998C8.57971 10.5998 8.24057 10.7403 7.99053 10.9904C7.74048 11.2404 7.6 11.5795 7.6 11.9332C7.59144 12.1258 7.54497 12.3149 7.46324 12.4896C7.38151 12.6643 7.26613 12.8212 7.12371 12.9512C6.98128 13.0812 6.81461 13.1819 6.63323 13.2475C6.45185 13.313 6.25932 13.3421 6.06667 13.3332H5.46667C5.23241 13.3416 4.99978 13.2911 4.79011 13.1863C4.58045 13.0814 4.40047 12.9256 4.26667 12.7332C4.15432 12.5947 4.0725 12.434 4.02654 12.2616C3.98059 12.0893 3.97154 11.9092 4 11.7332ZM23.3333 26.6665V17.9998H18.6667V26.6665H6.66667V15.9332C7.51022 15.8527 8.30522 15.502 8.93333 14.9332C9.70378 15.6209 10.7006 16.0006 11.7333 15.9998H13.2C14.2327 16.0006 15.2295 15.6209 16 14.9332C16.7705 15.6209 17.7673 16.0006 18.8 15.9998H20.2667C21.2994 16.0006 22.2962 15.6209 23.0667 14.9332C23.6948 15.502 24.4898 15.8527 25.3333 15.9332V26.6665H23.3333Z" fill="#827D89"/>
<path d="M16 18H8.66666V24.6667H16V18Z" fill="#827D89"/>
</g>
<defs>
<clipPath id="clip0_22_112">
<rect width="32" height="32" fill="white"/>
</clipPath>
</defs>
</svg>
