<svg width="32" height="32" viewBox="0 0 32 32" fill="none" xmlns="http://www.w3.org/2000/svg">
<g clip-path="url(#clip0_44_5123)">
<path d="M30.5333 10.9332V10.7332L27.2 3.4665C27.0978 3.23213 26.9303 3.0321 26.7175 2.89025C26.5047 2.74841 26.2557 2.67074 26 2.6665H6C5.74433 2.67074 5.49526 2.74841 5.2825 2.89025C5.06974 3.0321 4.90225 3.23213 4.8 3.4665L1.53333 10.7332V10.9332C1.37184 11.5235 1.34797 12.143 1.46355 12.744C1.57912 13.345 1.83107 13.9115 2.2 14.3998C2.69964 14.9948 3.34183 15.4535 4.06667 15.7332V27.3332C4.06667 27.8636 4.27738 28.3723 4.65245 28.7474C5.02753 29.1225 5.53623 29.3332 6.06667 29.3332H18C18.0901 29.3439 18.1815 29.334 18.2673 29.3043C18.353 29.2746 18.431 29.2258 18.4951 29.1616C18.5593 29.0975 18.6081 29.0195 18.6378 28.9338C18.6675 28.848 18.6774 28.7566 18.6667 28.6665V17.9998H23.3333V28.6665C23.3226 28.7566 23.3325 28.848 23.3622 28.9338C23.3919 29.0195 23.4407 29.0975 23.5049 29.1616C23.5691 29.2258 23.647 29.2746 23.7327 29.3043C23.8185 29.334 23.9099 29.3439 24 29.3332H26C26.5304 29.3332 27.0391 29.1225 27.4142 28.7474C27.7893 28.3723 28 27.8636 28 27.3332V15.7332C28.7248 15.4535 29.367 14.9948 29.8667 14.3998C30.2356 13.9115 30.4875 13.345 30.6031 12.744C30.7187 12.143 30.6948 11.5235 30.5333 10.9332ZM16 24.6665H8.66667V17.9998H16V24.6665ZM27.7333 12.7332C27.5995 12.9256 27.4196 13.0814 27.2099 13.1863C27.0002 13.2911 26.7676 13.3416 26.5333 13.3332H25.8667C25.6773 13.3422 25.488 13.3127 25.3104 13.2464C25.1328 13.1801 24.9705 13.0784 24.8333 12.9475C24.6962 12.8165 24.5871 12.6591 24.5126 12.4848C24.4381 12.3104 24.3998 12.1228 24.4 11.9332C24.4 11.5795 24.2595 11.2404 24.0095 10.9904C23.7594 10.7403 23.4203 10.5998 23.0667 10.5998C22.713 10.5998 22.3739 10.7403 22.1239 10.9904C21.8738 11.2404 21.7333 11.5795 21.7333 11.9332C21.7335 12.1228 21.6953 12.3104 21.6208 12.4848C21.5463 12.6591 21.4371 12.8165 21.3 12.9475C21.1629 13.0784 21.0005 13.1801 20.8229 13.2464C20.6453 13.3127 20.456 13.3422 20.2667 13.3332H18.8C18.6106 13.3422 18.4214 13.3127 18.2437 13.2464C18.0661 13.1801 17.9038 13.0784 17.7667 12.9475C17.6295 12.8165 17.5204 12.6591 17.4459 12.4848C17.3714 12.3104 17.3331 12.1228 17.3333 11.9332C17.3333 11.5795 17.1929 11.2404 16.9428 10.9904C16.6928 10.7403 16.3536 10.5998 16 10.5998C15.6464 10.5998 15.3072 10.7403 15.0572 10.9904C14.8071 11.2404 14.6667 11.5795 14.6667 11.9332C14.6669 12.1228 14.6286 12.3104 14.5541 12.4848C14.4796 12.6591 14.3705 12.8165 14.2333 12.9475C14.0962 13.0784 13.9339 13.1801 13.7563 13.2464C13.5786 13.3127 13.3894 13.3422 13.2 13.3332H11.7333C11.544 13.3422 11.3547 13.3127 11.1771 13.2464C10.9995 13.1801 10.8371 13.0784 10.7 12.9475C10.5629 12.8165 10.4537 12.6591 10.3792 12.4848C10.3048 12.3104 10.2665 12.1228 10.2667 11.9332C10.2667 11.5795 10.1262 11.2404 9.87614 10.9904C9.62609 10.7403 9.28696 10.5998 8.93333 10.5998C8.57971 10.5998 8.24057 10.7403 7.99053 10.9904C7.74048 11.2404 7.6 11.5795 7.6 11.9332C7.60022 12.1228 7.56192 12.3104 7.48743 12.4848C7.41294 12.6591 7.30381 12.8165 7.16667 12.9475C7.02952 13.0784 6.86721 13.1801 6.68959 13.2464C6.51196 13.3127 6.32272 13.3422 6.13333 13.3332H5.46667C5.23241 13.3416 4.99978 13.2911 4.79011 13.1863C4.58045 13.0814 4.40047 12.9256 4.26667 12.7332C4.05331 12.4461 3.9579 12.0883 4 11.7332L6.86667 5.33317H25.1333L28 11.7332C28.0421 12.0883 27.9467 12.4461 27.7333 12.7332Z" fill="#FF4B4E"/>
</g>
<defs>
<clipPath id="clip0_44_5123">
<rect width="32" height="32" fill="white"/>
</clipPath>
</defs>
</svg>
