<svg width="32" height="32" viewBox="0 0 32 32" fill="none" xmlns="http://www.w3.org/2000/svg">
<path d="M16 24.3337C16.5523 24.3337 17 24.7814 17 25.3337C17 25.8859 16.5523 26.3337 16 26.3337H8C6.71133 26.3337 5.66666 25.289 5.66666 24.0003V8.00033C5.66666 6.71166 6.71133 5.66699 8 5.66699H16C16.5523 5.66699 17 6.11471 17 6.66699C17 7.21928 16.5523 7.66699 16 7.66699L8 7.66699C7.8159 7.66699 7.66666 7.81623 7.66666 8.00033L7.66666 24.0003C7.66666 24.1844 7.8159 24.3337 8 24.3337H16Z" fill="#FF4B4E"/>
<path fill-rule="evenodd" clip-rule="evenodd" d="M12.6626 19.154C11.7421 19.154 10.9959 18.4078 10.9959 17.4873V14.4999C10.9959 13.5795 11.7421 12.8333 12.6626 12.8333L18.8127 12.8333C18.8214 12.7354 18.8305 12.6375 18.84 12.5396L18.912 11.7985C19.0219 10.6676 20.2227 9.99043 21.2473 10.4814C23.4263 11.5257 25.3989 12.9547 27.0702 14.6997L27.2025 14.8378C27.8214 15.484 27.8214 16.5032 27.2025 17.1494L27.0702 17.2875C25.3989 19.0325 23.4263 20.4615 21.2473 21.5057C20.2228 21.9968 19.0219 21.3195 18.912 20.1887L18.84 19.4476C18.8305 19.3497 18.8214 19.2518 18.8127 19.154H12.6626ZM19.7399 17.154C20.095 17.154 20.409 17.3397 20.5866 17.6216C20.673 17.7589 20.7271 17.9191 20.7379 18.0917C20.7621 18.4795 20.793 18.8671 20.8306 19.2541L20.8515 19.4692C22.2329 18.7573 23.5158 17.8708 24.6688 16.8322C24.968 16.5628 25.2584 16.2831 25.5395 15.9936C24.1748 14.5882 22.5913 13.4146 20.8515 12.518L20.8306 12.7331C20.793 13.1201 20.7621 13.5077 20.7379 13.8955C20.705 14.4226 20.268 14.8333 19.7399 14.8333H12.9959V17.154H19.7399Z" fill="#FF4B4E"/>
</svg>
