<svg width="32" height="32" viewBox="0 0 32 32" fill="none" xmlns="http://www.w3.org/2000/svg">
<path fill-rule="evenodd" clip-rule="evenodd" d="M17.3333 4.00033C17.3333 3.26395 16.7364 2.66699 16 2.66699C15.2636 2.66699 14.6667 3.26395 14.6667 4.00033V5.00033H13.9234C10.9567 5.00033 8.50122 7.30701 8.31603 10.268L8.02136 14.9793C7.90901 16.7755 7.30596 18.5065 6.27788 19.9838C5.34897 21.3185 6.17593 23.1619 7.7905 23.3557L12.3333 23.9008V25.3337C12.3333 27.3587 13.975 29.0003 16 29.0003C18.0251 29.0003 19.6667 27.3587 19.6667 25.3337V23.9008L24.2095 23.3557C25.8241 23.1619 26.651 21.3185 25.7221 19.9838C24.694 18.5065 24.091 16.7755 23.9786 14.9793L23.684 10.268C23.4988 7.30701 21.0433 5.00033 18.0765 5.00033H17.3333V4.00033ZM13.9234 7.00033C12.0128 7.00033 10.4314 8.48589 10.3121 10.3928L10.0175 15.1041C9.88226 17.2656 9.15659 19.3486 7.91946 21.1262C7.85232 21.2227 7.91209 21.3559 8.02879 21.3699L13.0123 21.968C14.997 22.2061 17.003 22.2061 18.9877 21.968L23.9712 21.3699C24.0879 21.3559 24.1477 21.2227 24.0805 21.1262C22.8434 19.3486 22.1177 17.2656 21.9825 15.1041L21.6879 10.3928C21.5686 8.48589 19.9872 7.00033 18.0765 7.00033H13.9234ZM16 27.0003C15.0795 27.0003 14.3333 26.2541 14.3333 25.3337V24.3337H17.6667V25.3337C17.6667 26.2541 16.9205 27.0003 16 27.0003Z" fill="#030303"/>
</svg>
