<svg width="354" height="262" viewBox="0 0 354 262" fill="none" xmlns="http://www.w3.org/2000/svg">
<path d="M98 50H213C213 50 206.822 35.5714 186.142 40.0579C186.142 40.0579 181.794 23.6648 166.006 25.9346C166.006 25.9346 152.948 11.7714 133.912 17.2668C114.876 22.7621 116.493 40.0579 116.493 40.0579C116.493 40.0579 102.348 36.3811 98 50Z" fill="#FAFAFA"/>
<path d="M354 38H225C225 38 231.944 21.8883 255.139 26.9028C255.139 26.9028 260.016 8.58052 277.709 11.1174C277.709 11.1174 292.355 -4.72722 313.721 1.41482C335.087 7.55686 333.243 26.9028 333.243 26.9028C333.243 26.9028 349.049 22.7784 354 38Z" fill="#FAFAFA"/>
<path d="M158.956 39.554H234.016V234.636H158.956V39.554Z" fill="#E6E6E6"/>
<path d="M186.731 39.554H261.799V234.636H186.731V39.554Z" fill="#F0F0F0"/>
<path d="M193.281 52.7964H255.248V62.7344H193.281V52.7964Z" fill="#E6E6E6"/>
<path d="M193.281 52.7964H252.843V62.7344H193.281V52.7964Z" fill="#F5F5F5"/>
<path d="M193.281 69.5261H255.248V79.4642H193.281V69.5261Z" fill="#E6E6E6"/>
<path d="M193.281 69.5261H252.843V79.4642H193.281V69.5261Z" fill="#F5F5F5"/>
<path d="M193.281 86.9053H255.248V96.8433H193.281V86.9053Z" fill="#E6E6E6"/>
<path d="M193.281 86.9053H252.843V96.8433H193.281V86.9053Z" fill="#F5F5F5"/>
<path d="M193.281 104.293H255.248V114.231H193.281V104.293Z" fill="#E6E6E6"/>
<path d="M193.281 104.293H252.843V114.231H193.281V104.293Z" fill="#F5F5F5"/>
<path d="M193.281 121.672H255.248V131.61H193.281V121.672Z" fill="#E6E6E6"/>
<path d="M193.281 121.672H252.843V131.61H193.281V121.672Z" fill="#F5F5F5"/>
<path d="M193.281 139.059H255.248V148.997H193.281V139.059Z" fill="#E6E6E6"/>
<path d="M193.281 139.059H252.843V148.997H193.281V139.059Z" fill="#F5F5F5"/>
<path d="M193.281 158.219H255.248V168.158H193.281V158.219Z" fill="#E6E6E6"/>
<path d="M193.281 158.219H252.843V168.158H193.281V158.219Z" fill="#F5F5F5"/>
<path d="M193.281 177.371H255.248V187.309H193.281V177.371Z" fill="#E6E6E6"/>
<path d="M193.281 177.371H252.843V187.309H193.281V177.371Z" fill="#F5F5F5"/>
<path d="M193.281 196.532H255.248V206.47H193.281V196.532Z" fill="#E6E6E6"/>
<path d="M193.281 196.532H252.843V206.47H193.281V196.532Z" fill="#F5F5F5"/>
<path d="M193.281 215.692H255.248V225.63H193.281V215.692Z" fill="#E6E6E6"/>
<path d="M193.281 215.692H252.843V225.63H193.281V215.692Z" fill="#F5F5F5"/>
<path d="M157 37.5894H263.921V42.3503H157V37.5894Z" fill="#F5F5F5"/>
<path d="M157 29H263.921V33.7609H157V29Z" fill="#F5F5F5"/>
<path d="M160.554 32.8286H261.799V37.5896H160.554V32.8286Z" fill="#F0F0F0"/>
<path d="M158.948 52.7964H179.864V62.7344H158.948V52.7964Z" fill="#E0E0E0"/>
<path d="M158.948 69.1516H179.864V79.0897H158.948V69.1516Z" fill="#E0E0E0"/>
<path d="M158.948 85.5068H179.864V95.4449H158.948V85.5068Z" fill="#E0E0E0"/>
<path d="M158.948 104.284H179.864V114.222H158.948V104.284Z" fill="#E0E0E0"/>
<path d="M158.948 121.672H179.864V131.61H158.948V121.672Z" fill="#E0E0E0"/>
<path d="M158.948 139.059H179.864V148.997H158.948V139.059Z" fill="#E0E0E0"/>
<path d="M158.948 158.211H179.864V168.149H158.948V158.211Z" fill="#E0E0E0"/>
<path d="M158.948 177.371H179.864V187.309H158.948V177.371Z" fill="#E0E0E0"/>
<path d="M158.948 196.532H179.864V206.47H158.948V196.532Z" fill="#E0E0E0"/>
<path d="M158.948 215.692H179.864V225.63H158.948V215.692Z" fill="#E0E0E0"/>
<path d="M72.0001 47.2913H145.534V226.227H72.0001V47.2913Z" fill="#E0E0E0"/>
<path d="M92.9439 47.2913H145.534V226.227H92.9439V47.2913Z" fill="#F0F0F0"/>
<path d="M120.543 61.9941H140.114V71.4981H120.543V61.9941Z" fill="#E6E6E6"/>
<path d="M120.543 61.9941H138.814V71.4981H120.543V61.9941Z" fill="#F5F5F5"/>
<path d="M97.9034 61.9941H117.474V71.4981H97.9034V61.9941Z" fill="#E6E6E6"/>
<path d="M97.9033 61.9941H116.174V71.4981H97.9033V61.9941Z" fill="#F5F5F5"/>
<path d="M120.543 79.8779H140.114V89.382H120.543V79.8779Z" fill="#E6E6E6"/>
<path d="M120.543 79.8779H138.814V89.382H120.543V79.8779Z" fill="#F5F5F5"/>
<path d="M97.9034 79.8779H117.474V89.382H97.9034V79.8779Z" fill="#E6E6E6"/>
<path d="M97.9033 79.8779H116.174V89.382H97.9033V79.8779Z" fill="#F5F5F5"/>
<path d="M120.543 102.729H140.114V112.233H120.543V102.729Z" fill="#E6E6E6"/>
<path d="M120.543 102.729H138.814V112.233H120.543V102.729Z" fill="#F5F5F5"/>
<path d="M97.9034 102.729H117.474V112.233H97.9034V102.729Z" fill="#E6E6E6"/>
<path d="M97.9033 102.729H116.174V112.233H97.9033V102.729Z" fill="#F5F5F5"/>
<path d="M120.543 115.866H140.114V125.37H120.543V115.866Z" fill="#E6E6E6"/>
<path d="M120.543 115.866H138.814V125.37H120.543V115.866Z" fill="#F5F5F5"/>
<path d="M97.9034 115.866H117.474V125.37H97.9034V115.866Z" fill="#E6E6E6"/>
<path d="M97.9033 115.866H116.174V125.37H97.9033V115.866Z" fill="#F5F5F5"/>
<path d="M120.543 137.446H140.114V146.95H120.543V137.446Z" fill="#E6E6E6"/>
<path d="M120.543 137.446H138.814V146.95H120.543V137.446Z" fill="#F5F5F5"/>
<path d="M97.9034 137.446H117.474V146.95H97.9034V137.446Z" fill="#E6E6E6"/>
<path d="M97.9033 137.446H116.174V146.95H97.9033V137.446Z" fill="#F5F5F5"/>
<path d="M120.543 150.573H140.114V160.077H120.543V150.573Z" fill="#E6E6E6"/>
<path d="M120.543 150.573H138.814V160.077H120.543V150.573Z" fill="#F5F5F5"/>
<path d="M97.9034 150.573H117.474V160.077H97.9034V150.573Z" fill="#E6E6E6"/>
<path d="M97.9033 150.573H116.174V160.077H97.9033V150.573Z" fill="#F5F5F5"/>
<path d="M120.543 174.061H140.114V183.565H120.543V174.061Z" fill="#E6E6E6"/>
<path d="M120.543 174.061H138.814V183.565H120.543V174.061Z" fill="#F5F5F5"/>
<path d="M97.9034 174.061H117.474V183.565H97.9034V174.061Z" fill="#E6E6E6"/>
<path d="M97.9033 174.061H116.174V183.565H97.9033V174.061Z" fill="#F5F5F5"/>
<path d="M120.543 191.4H140.114V200.904H120.543V191.4Z" fill="#E6E6E6"/>
<path d="M120.543 191.4H138.814V200.904H120.543V191.4Z" fill="#F5F5F5"/>
<path d="M97.9034 191.4H117.474V200.904H97.9034V191.4Z" fill="#E6E6E6"/>
<path d="M97.9033 191.4H116.174V200.904H97.9033V191.4Z" fill="#F5F5F5"/>
<path opacity="0.05" d="M72.0001 95.2354H145.534V96.867H72.0001V95.2354Z" fill="black"/>
<path opacity="0.05" d="M72.0001 130.587H145.534V132.219H72.0001V130.587Z" fill="black"/>
<path opacity="0.05" d="M72.0001 166.253H145.534V167.884H72.0001V166.253Z" fill="black"/>
<path d="M72 42H149V47.7153H72V42Z" fill="#E0E0E0"/>
<path opacity="0.05" d="M72 42H89.5977V47.7153H72V42Z" fill="black"/>
<path d="M0 128H72V237.5H0V128Z" fill="#E6E6E6"/>
<path d="M12.1598 128H71.9931V237.5H12.1598V128Z" fill="#F0F0F0"/>
<path d="M17.9604 138.766H66.6133V149.471H17.9604V138.766Z" fill="#EBEBEB"/>
<path d="M17.9604 156.279H66.6133V166.983H17.9604V156.279Z" fill="#EBEBEB"/>
<path d="M17.9604 173.797H66.6133V184.502H17.9604V173.797Z" fill="#EBEBEB"/>
<path d="M17.9604 191.31H66.6133V202.014H17.9604V191.31Z" fill="#EBEBEB"/>
<path d="M17.9604 208.828H66.6133V219.533H17.9604V208.828Z" fill="#EBEBEB"/>
<path d="M17.9604 138.766H64.82V149.471H17.9604V138.766Z" fill="#F5F5F5"/>
<path d="M17.9604 156.279H64.82V166.983H17.9604V156.279Z" fill="#F5F5F5"/>
<path d="M17.9604 173.797H64.82V184.502H17.9604V173.797Z" fill="#F5F5F5"/>
<path d="M17.9604 191.31H64.82V202.014H17.9604V191.31Z" fill="#F5F5F5"/>
<path d="M17.9604 208.828H64.82V219.533H17.9604V208.828Z" fill="#F5F5F5"/>
<path d="M261.854 94.6926H334.436V238.499H261.854V94.6926Z" fill="#E6E6E6"/>
<path d="M275.051 94.6926H334.436V238.499H275.051V94.6926Z" fill="#F0F0F0"/>
<path d="M261 94.6926H336V97.0389H261V94.6926Z" fill="#E0E0E0"/>
<path d="M261 90H336V92.3463H261V90Z" fill="#E0E0E0"/>
<path d="M262.573 92.3464H334.436V94.6927H262.573V92.3464Z" fill="#F0F0F0"/>
<path d="M317.643 103.152H328.799V114.479H317.643V103.152Z" fill="#E6E6E6"/>
<path d="M317.652 103.152H327.819V114.479H317.652V103.152Z" fill="#F5F5F5"/>
<path d="M300.752 103.152H311.908V114.479H300.752V103.152Z" fill="#E6E6E6"/>
<path d="M300.761 103.152H310.928V114.479H300.761V103.152Z" fill="#F5F5F5"/>
<path d="M283.86 103.152H295.017V114.479H283.86V103.152Z" fill="#E6E6E6"/>
<path d="M283.869 103.152H294.037V114.479H283.869V103.152Z" fill="#F5F5F5"/>
<path d="M317.643 119.828H328.799V131.155H317.643V119.828Z" fill="#E6E6E6"/>
<path d="M317.652 119.828H327.819V131.155H317.652V119.828Z" fill="#F5F5F5"/>
<path d="M300.752 119.828H311.908V131.155H300.752V119.828Z" fill="#E6E6E6"/>
<path d="M300.761 119.828H310.928V131.155H300.761V119.828Z" fill="#F5F5F5"/>
<path d="M283.86 119.828H295.017V131.155H283.86V119.828Z" fill="#E6E6E6"/>
<path d="M283.869 119.828H294.037V131.155H283.869V119.828Z" fill="#F5F5F5"/>
<path d="M317.643 150.365H328.799V161.692H317.643V150.365Z" fill="#E6E6E6"/>
<path d="M317.652 150.365H327.819V161.692H317.652V150.365Z" fill="#F5F5F5"/>
<path d="M300.752 150.365H311.908V161.692H300.752V150.365Z" fill="#E6E6E6"/>
<path d="M300.761 150.365H310.928V161.692H300.761V150.365Z" fill="#F5F5F5"/>
<path d="M283.86 150.365H295.017V161.692H283.86V150.365Z" fill="#E6E6E6"/>
<path d="M283.869 150.365H294.037V161.692H283.869V150.365Z" fill="#F5F5F5"/>
<path d="M317.643 167.041H328.799V178.368H317.643V167.041Z" fill="#E6E6E6"/>
<path d="M317.652 167.041H327.819V178.368H317.652V167.041Z" fill="#F5F5F5"/>
<path d="M300.752 167.041H311.908V178.368H300.752V167.041Z" fill="#E6E6E6"/>
<path d="M300.761 167.041H310.928V178.368H300.761V167.041Z" fill="#F5F5F5"/>
<path d="M283.86 167.041H295.017V178.368H283.86V167.041Z" fill="#E6E6E6"/>
<path d="M283.869 167.041H294.037V178.368H283.869V167.041Z" fill="#F5F5F5"/>
<path d="M317.643 200.976H328.799V212.303H317.643V200.976Z" fill="#E6E6E6"/>
<path d="M317.652 200.976H327.819V212.303H317.652V200.976Z" fill="#F5F5F5"/>
<path d="M300.752 200.976H311.908V212.303H300.752V200.976Z" fill="#E6E6E6"/>
<path d="M300.761 200.976H310.928V212.303H300.761V200.976Z" fill="#F5F5F5"/>
<path d="M283.86 200.976H295.017V212.303H283.86V200.976Z" fill="#E6E6E6"/>
<path d="M283.869 200.976H294.037V212.303H283.869V200.976Z" fill="#F5F5F5"/>
<path d="M317.643 217.652H328.799V228.979H317.643V217.652Z" fill="#E6E6E6"/>
<path d="M317.652 217.652H327.819V228.979H317.652V217.652Z" fill="#F5F5F5"/>
<path d="M300.752 217.652H311.908V228.979H300.752V217.652Z" fill="#E6E6E6"/>
<path d="M300.761 217.652H310.928V228.979H300.761V217.652Z" fill="#F5F5F5"/>
<path d="M283.86 217.652H295.017V228.979H283.86V217.652Z" fill="#E6E6E6"/>
<path d="M283.869 217.652H294.037V228.979H283.869V217.652Z" fill="#F5F5F5"/>
<path d="M261.854 139.119H334.436V140.171H261.854V139.119Z" fill="#E0E0E0"/>
<path d="M261.854 191.313H334.436V192.365H261.854V191.313Z" fill="#E0E0E0"/>
<path d="M89.0272 192.372L52.4336 190.885" stroke="#FF4B4E" stroke-linecap="round" stroke-linejoin="round"/>
<path d="M40.3399 184.221L34.9031 184" stroke="#FF4B4E" stroke-linecap="round" stroke-linejoin="round"/>
<path d="M71.4891 185.487L44.5109 184.389" stroke="#FF4B4E" stroke-linecap="round" stroke-linejoin="round"/>
<path d="M52.6089 204.428L30 203.513" stroke="#FF4B4E" stroke-linecap="round" stroke-linejoin="round"/>
<path d="M66.5861 205L56.7342 204.596" stroke="#FF4B4E" stroke-linecap="round" stroke-linejoin="round"/>
<path d="M159.293 261.562C97.8276 261.562 48 258.652 48 255.064C48 251.475 97.8276 248.566 159.293 248.566C220.758 248.566 270.586 251.475 270.586 255.064C270.586 258.652 220.758 261.562 159.293 261.562Z" fill="#F5F5F5"/>
<path d="M230 255H232.296" stroke="#FF4B4E" stroke-linecap="round" stroke-linejoin="round"/>
<path d="M236.635 255H295.27" stroke="#FF4B4E" stroke-linecap="round" stroke-linejoin="round" stroke-dasharray="7.57 7.57"/>
<path d="M297.439 255H299.735" stroke="#FF4B4E" stroke-linecap="round" stroke-linejoin="round"/>
<path d="M78 28H7C7 28 9.71717 18.4043 19.9869 21.5643C19.9869 21.5643 17.8474 8.65062 25.4213 7.15492C32.9952 5.65921 35.4021 15.4866 35.4021 15.4866C37.1353 13.5526 39.3824 12.1335 41.8905 11.3891C44.3986 10.6447 47.0679 10.6046 49.5978 11.2734C52.0856 11.9112 54.3526 13.1978 56.1599 14.9978C57.9673 16.7978 59.2482 19.0444 59.8675 21.5011C59.8675 21.5011 72.5121 14.3701 78 28Z" fill="#FAFAFA"/>
<path d="M85.5215 117.666L151.752 118.764L150.959 166.578L84.7287 165.48L85.5215 117.666Z" fill="#FF4B4E"/>
<path opacity="0.3" d="M111.775 118.096L151.817 118.76L151.025 166.573L110.982 165.909L111.775 118.096Z" fill="white"/>
<path opacity="0.3" d="M105.741 121.317L117.273 121.548L117.208 124.762L105.677 124.532L105.741 121.317Z" fill="white"/>
<path opacity="0.3" d="M105.398 158.498L116.929 158.689L116.875 161.903L105.345 161.712L105.398 158.498Z" fill="white"/>
<path d="M172.125 224.59C171.126 225.354 151.076 223.196 156.259 187.625C156.259 187.625 146.748 190.041 145.726 189.881C145.726 189.881 131.772 211.274 141.932 221.87C152.092 232.466 167.234 233.114 167.234 233.114L172.125 224.59Z" fill="#FF4B4E"/>
<path opacity="0.3" d="M172.125 224.59C171.126 225.354 151.076 223.196 156.259 187.625C156.259 187.625 146.748 190.041 145.726 189.881C145.726 189.881 131.772 211.274 141.932 221.87C152.092 232.466 167.234 233.114 167.234 233.114L172.125 224.59Z" fill="black"/>
<path d="M149.905 193.129C149.853 193.129 155.507 193.238 157.401 190.885C159.296 188.532 160.576 184.324 157.132 181.454C153.688 178.584 133.466 166.186 123.943 165.21C114.42 164.234 104.226 170.376 104.226 170.376L116.693 179.594L143.539 186.092L149.905 193.129Z" fill="#263238"/>
<path d="M168.187 218.988L167.665 224.131L161.488 223.609L162.418 218.322L168.187 218.988Z" fill="#FFC3BD"/>
<path d="M169.387 223.758L160.426 223.632L159.789 228.155C159.789 228.155 168.181 228.27 171.631 227.811C175.081 227.351 174.541 225.555 174.541 225.555C174.541 225.555 170.5 225.652 169.387 223.758Z" fill="#263238"/>
<path d="M91.1918 236.776C89.854 223.628 97.7919 212.051 108.922 210.919C120.052 209.786 130.159 219.527 131.497 232.675C132.835 245.824 124.897 257.4 113.767 258.533C102.637 259.665 92.5297 249.925 91.1918 236.776Z" fill="#263238"/>
<path d="M125.424 161.531C125.424 161.531 124.494 182.866 136.904 183.475C149.314 184.083 162.648 182.723 162.648 182.723L158.739 221.06L170.374 221.778C170.374 221.778 178.726 189.255 180.04 181.081C181.354 172.907 180.212 167.127 171.585 163.499C162.958 159.872 125.424 161.531 125.424 161.531Z" fill="#FF4B4E"/>
<path d="M194.872 229.222L179.414 184.324L158.75 161.513C158.75 161.513 176.785 161.582 185.453 166.565C194.12 171.547 194.442 177.534 196.032 184.657C197.622 191.78 203.999 225.497 203.999 225.497L194.872 229.222Z" fill="#FF4B4E"/>
<path opacity="0.7" d="M125.424 161.531C125.424 161.531 144.63 160.675 158.716 161.531C158.716 161.531 176.751 161.6 185.418 166.582C194.086 171.564 194.442 177.534 196.032 184.657C197.622 191.781 203.999 225.497 203.999 225.497L194.872 229.223L179.414 184.324C176.814 196.769 170.374 221.755 170.374 221.755L158.739 221.06L162.654 182.746C162.654 182.746 149.325 184.106 136.91 183.498C124.494 182.889 125.424 161.531 125.424 161.531Z" fill="black"/>
<path d="M157.132 126.924L164.266 127.791C164.266 127.791 165.506 140.907 166.66 143.455C166.66 143.455 188.604 146.469 197.593 146.21L202.156 149.31L202.317 154.7L197.845 154.832L196.405 151.417C196.405 151.417 193.386 151.285 192.685 149.586C192.685 149.586 169.369 155.217 160.782 148.788C160.771 148.793 155.593 141.188 157.132 126.924Z" fill="#FFC3BD"/>
<path d="M136.686 91.801C136.686 91.801 134.453 94.671 135.302 97.1564C135.537 97.8652 135.95 98.5017 136.502 99.0044C137.054 99.5071 137.726 99.8591 138.454 100.026C138.454 100.026 138.873 104.004 141.22 104.119C143.568 104.234 142.782 95.3541 142.782 95.3541L136.686 91.801Z" fill="#263238"/>
<path d="M154.761 161.628L156.328 135.988L166.052 129.524C166.052 129.524 162.872 118.314 156.787 116.414C150.703 114.514 137.432 110.158 129.385 112.322C121.337 114.486 122.261 123.979 123.645 131.022L125.194 131.39C125.194 131.39 125.435 159.143 125.447 161.531L154.761 161.628Z" fill="#263238"/>
<path d="M137.266 113.906C140.451 116.988 146.949 118.825 148.746 117.292C150.542 115.76 148.275 114.354 146.587 112.62C145.675 111.667 145.703 109.882 145.916 108.459C146.028 107.741 146.193 107.033 146.409 106.341C152.373 106.013 154.847 103.224 155.094 98.3045C155.341 93.3854 153.114 87.6741 153.114 87.6741L148.901 84.0808C148.901 84.0808 143.161 84.9418 138.569 88.0988C135.836 89.9586 136.646 93.6207 137.776 96.3242C138.256 97.475 138.832 98.583 139.498 99.6362C140.141 106.369 137.266 113.906 137.266 113.906Z" fill="#FFC3BD"/>
<path d="M151.776 99.6592C151.776 99.6592 149.48 99.7682 148.476 98.3447" stroke="#263238" stroke-linecap="round" stroke-linejoin="round"/>
<path d="M148.12 93.8503C148.12 94.2865 148.384 94.6309 148.694 94.6252C149.004 94.6195 149.228 94.2578 149.216 93.8216C149.205 93.3854 148.952 93.041 148.642 93.0467C148.332 93.0524 148.103 93.4141 148.12 93.8503Z" fill="#263238"/>
<path d="M153.355 93.988C153.355 94.4242 153.619 94.7686 153.929 94.7629C154.239 94.7572 154.463 94.3955 154.451 93.9593C154.44 93.5231 154.187 93.1787 153.877 93.1844C153.567 93.1901 153.338 93.5575 153.355 93.988Z" fill="#263238"/>
<path d="M151.535 97.5526L151.771 94.0339L153.452 97.3746C153.19 97.5977 152.865 97.7345 152.522 97.7663C152.179 97.7982 151.834 97.7235 151.535 97.5526Z" fill="#ED847E"/>
<path d="M148.395 91.095C147.955 90.9741 147.486 91.0132 147.072 91.2056C146.658 91.3979 146.325 91.731 146.134 92.1455" stroke="#263238" stroke-linecap="round" stroke-linejoin="round"/>
<path d="M154.973 91.7436C154.973 91.7436 153.917 90.5956 152.677 90.8884" stroke="#263238" stroke-linecap="round" stroke-linejoin="round"/>
<path d="M137.736 96.3244C144.303 96.5597 145.118 89.1149 145.118 89.1149C148.367 90.8369 153.091 87.6799 153.091 87.6799L148.878 84.0752C148.878 84.0752 143.138 84.9477 138.546 88.0932C135.796 89.9587 136.605 93.6323 137.736 96.3244Z" fill="#263238"/>
<path d="M155.203 89.8611C155.203 89.8611 158.601 87.5995 157.103 85.9694C155.605 84.3392 146.427 87.4388 139.567 91.2387C139.567 91.2387 155.278 80.7288 159.548 84.0522C163.078 86.8017 155.249 90.6188 155.484 90.613L155.203 89.8611Z" fill="#FF4B4E"/>
<path d="M136.037 89.0918C136.047 90.2821 136.272 91.4607 136.703 92.5703L152.132 85.1083C151.493 84.3702 150.727 83.752 149.871 83.283C148.957 82.7606 147.965 82.3922 146.932 82.1924C145.836 81.983 144.715 81.9442 143.608 82.0776C137.966 82.7262 136.009 87.0656 136.037 89.0918Z" fill="#FF4B4E"/>
<path d="M171.482 157.725C172.486 158.776 185.476 156.083 187.743 157.289C188.702 157.794 189.121 159.585 190.085 161.548C191.399 164.217 193.736 167.144 199.843 167.34C210.451 167.678 209.171 156.916 210.009 153.42C210.009 153.42 220.054 151.589 220.582 149.827C221.11 148.065 220.461 147.801 220.461 147.801C220.461 147.801 208.068 150.097 205.669 146.963C205.204 146.509 204.659 146.145 204.062 145.889C202.685 145.284 201.203 144.95 199.7 144.908C195.331 144.678 190.005 145.906 188.512 148.673C185.482 154.316 172.486 153.047 171.292 154.528C170.098 156.009 170.477 156.675 171.482 157.725Z" fill="#FF4B4E"/>
<path d="M204.366 165.078C204.366 165.078 221.793 189.186 207.443 226.295" stroke="#263238" stroke-linecap="round" stroke-linejoin="round"/>
<path d="M181.366 177.603C181.366 177.603 181.366 177.649 181.366 177.741C181.366 177.832 181.366 177.884 181.366 177.987V178.045C181.573 180.367 181.957 182.669 182.514 184.933C183.306 188.279 184.357 191.465 185.223 194.025C188.897 204.902 188.472 216.623 188.472 216.623C189.689 215.108 191.916 214.029 194.7 213.271C204.837 210.487 222.045 211.98 222.045 211.98C225.421 200.138 224.215 181.604 220.857 171.226C217.499 160.848 208.189 163.19 208.189 163.19C208.189 163.19 198.362 163.477 197.128 163.345C194.869 163.071 192.583 163.117 190.338 163.482C182.749 164.871 180.924 170.87 181.366 177.603Z" fill="#FF4B4E"/>
<path d="M105.707 222.782C122.927 238.326 156.167 239.956 180.901 238.234L194.757 213.305L200.371 203.209L182.336 178.9L181.383 177.62C181.383 177.62 181.383 177.666 181.383 177.758C181.383 177.849 181.383 177.901 181.383 178.004V178.062C181.63 182.396 183.226 217.174 170.477 225.704L170.374 225.778C168.649 226.893 166.647 227.505 164.594 227.546C141.203 228.224 141.858 197.698 147.804 191.161L107.217 183.004C107.217 183.004 99.2036 203.18 105.707 222.782Z" fill="#FF4B4E"/>
<path d="M150.852 184.542C150.852 184.542 154.658 187.699 152.695 191.935C150.732 196.172 131.807 187.946 124.356 186.448C116.906 184.95 108.284 183.486 104.576 182.723C100.868 181.959 101.19 171.323 104.22 170.382C107.251 169.44 136.938 174.687 141.863 177.568C145.115 179.543 148.131 181.883 150.852 184.542Z" fill="#263238"/>
<path d="M141.324 98.9531C141.686 98.5632 141.905 98.062 141.946 97.5314C141.987 97.0008 141.846 96.472 141.548 96.0315C140.629 94.6539 138.775 92.4669 136.996 94.1028C134.505 96.3988 138.758 100.572 140.52 99.5616C140.815 99.3976 141.086 99.1928 141.324 98.9531Z" fill="#FFC3BD"/>
<path opacity="0.2" d="M155.203 89.8611C155.203 89.8611 158.601 87.5995 157.103 85.9694C156.437 85.2461 154.445 85.3954 151.753 86.1645C150.022 86.6306 148.327 87.2195 146.679 87.9267C144.314 88.9542 141.8 90.2686 139.567 91.2387C139.567 91.2387 155.278 80.7288 159.548 84.0522C163.078 86.8017 155.737 90.3662 155.479 90.6073L155.352 90.1424L155.203 89.8611Z" fill="black"/>
<path d="M153.59 88.8794C153.59 88.8794 157.034 89.4534 154.658 93.1614L153.59 88.8794Z" fill="#263238"/>
<path d="M150.29 86.6179C150.29 86.6179 155.484 84.7926 156.931 85.8258C158.377 86.859 156.862 88.8278 155.209 89.8438L153.883 90.016L153.102 87.6626L151.082 87.4157L150.29 86.6179Z" fill="#263238"/>
<path opacity="0.3" d="M143.212 83.8109L144.458 85.6535L149.871 83.3001C148.957 82.7777 147.965 82.4093 146.932 82.2095L143.212 83.8109Z" fill="white"/>
<path opacity="0.1" d="M144.418 105.835C144.776 106.788 145.29 107.675 145.939 108.459C146.051 107.741 146.216 107.033 146.432 106.341C145.736 106.292 145.054 106.121 144.418 105.835Z" fill="black"/>
<path d="M195.877 156.313C196.106 160.291 197.828 163.545 199.941 164.349C200.306 164.49 200.698 164.55 201.089 164.527C203.695 164.378 205.589 160.469 205.325 155.802C205.061 151.135 202.73 147.473 200.124 147.623C199.062 147.68 198.127 148.363 197.398 149.459C196.324 151.032 195.722 153.546 195.877 156.313Z" fill="#F5F5F5"/>
<path d="M195.877 156.313C196.106 160.291 197.828 163.545 199.941 164.349C202.351 164.211 204.102 160.601 203.855 156.313C203.608 152.025 201.462 148.621 199.051 148.759C198.43 148.806 197.842 149.058 197.381 149.477C196.324 151.032 195.722 153.546 195.877 156.313Z" fill="white"/>
<path d="M102.849 212.697C107.286 209.58 124.454 206.521 124.454 206.521C134.883 206.521 144.039 215.906 145.302 228.367C146.335 238.504 141.858 247.705 134.642 251.901C134.642 251.901 134.04 252.154 133.029 252.55C129.207 254.059 119.506 257.716 113.772 258.519" fill="#263238"/>
<path opacity="0.3" d="M91.1918 236.776C89.854 223.628 97.7919 212.051 108.922 210.919C120.052 209.786 130.159 219.527 131.497 232.675C132.835 245.824 124.897 257.4 113.767 258.533C102.637 259.665 92.5297 249.925 91.1918 236.776Z" fill="black"/>
<path d="M180.426 236.011C179.088 222.863 187.026 211.286 198.155 210.154C209.285 209.021 219.392 218.762 220.73 231.91C222.068 245.058 214.13 256.635 203 257.768C191.87 258.9 181.763 249.16 180.426 236.011Z" fill="#263238"/>
<path d="M188.197 214.54L198.46 257.63C199.957 257.872 201.48 257.917 202.989 257.762H203.103C205.072 257.257 204.194 257.802 206.169 257.148C211.191 255.489 218.487 252.556 218.487 252.556C226.218 248.796 230.586 239.652 229.525 229.205C228.239 216.549 219.158 207.095 208.47 207.87C208.47 207.87 203.396 208.805 198.173 210.166C195.877 210.74 193.581 211.423 191.692 212.134C190.442 212.805 189.27 213.611 188.197 214.54Z" fill="#263238"/>
<path opacity="0.3" d="M180.425 235.984C181.573 247.321 189.247 256.12 198.471 257.607C199.968 257.849 201.491 257.894 203 257.739H203.115C205.217 257.512 207.259 256.903 209.142 255.942C216.897 252.01 221.804 242.459 220.731 231.897C219.394 218.758 209.308 209.029 198.184 210.143H198.156C195.897 210.371 193.705 211.04 191.704 212.112C190.453 212.784 189.281 213.592 188.208 214.522C182.715 219.298 179.518 227.311 180.425 235.984Z" fill="black"/>
<path d="M183.22 220.888C183.556 220.351 183.941 219.846 184.368 219.378C186.934 215.877 192.8 214.568 196.64 214.878C199.584 215.165 202.41 216.179 204.866 217.829C207.667 219.642 209.67 222.421 212.448 224.326C217.717 227.965 225.713 227.862 231.005 224.114C231.304 223.902 231.588 223.67 231.855 223.419C232.394 222.858 232.754 222.148 232.888 221.382C233.091 220.424 233.017 219.429 232.676 218.512C231.528 215.286 227.699 212.45 225.283 210.722C220.383 207.266 214.621 205.237 208.637 204.862C191.572 203.685 184.293 218.259 183.22 220.888Z" fill="#FF4B4E"/>
<path opacity="0.3" d="M184.402 221.347C188.07 216.055 192.777 214.568 196.617 214.878C199.561 215.166 202.387 216.179 204.843 217.829C207.644 219.642 209.647 222.421 212.425 224.326C217.694 227.965 225.69 227.862 230.983 224.114C231.281 223.902 231.565 223.67 231.832 223.419C232.371 222.858 232.731 222.149 232.865 221.382C233.068 220.424 232.994 219.429 232.653 218.512C230.879 220.561 225.713 225.497 218.716 223.104C209.991 220.09 207.862 211.136 198.534 211.216C191.124 211.302 186.561 217.042 184.402 221.347Z" fill="black"/>
<g opacity="0.3">
<path d="M222.786 209.144C220.297 207.375 217.496 206.092 214.532 205.361C211.564 204.606 208.491 204.354 205.44 204.615C202.393 204.908 199.41 205.667 196.594 206.865L195.55 207.324L194.528 207.835C193.839 208.157 193.19 208.558 192.525 208.926C191.859 209.293 191.245 209.747 190.607 210.154C189.97 210.562 189.373 211.038 188.765 211.492C191.268 209.814 193.94 208.404 196.738 207.284C199.53 206.164 202.471 205.462 205.468 205.201C208.459 204.915 211.476 205.108 214.405 205.775C215.876 206.101 217.318 206.546 218.716 207.106C220.135 207.653 221.498 208.335 222.786 209.144Z" fill="black"/>
</g>
<g opacity="0.3">
<path d="M204.2 205.04C204.915 202.646 205.345 200.176 205.48 197.681C205.669 195.196 205.709 192.699 205.658 190.219C205.606 187.739 205.434 185.237 205.204 182.757L204.785 179.049C204.602 177.815 204.441 176.581 204.211 175.353L204.734 182.815L204.94 186.534C204.975 187.774 205.049 189.014 205.055 190.254C205.153 192.733 205.107 195.213 205.015 197.716C204.975 198.955 204.877 200.19 204.751 201.424C204.65 202.64 204.466 203.848 204.2 205.04Z" fill="black"/>
</g>
<path opacity="0.3" d="M170.506 225.652C182.491 217.943 182.967 198.054 182.56 184.933C182.485 182.677 182.393 180.628 182.325 178.865C182.199 177.102 182.199 175.331 182.325 173.567C183.536 164.556 190.424 163.471 190.424 163.471H190.395C182.767 164.871 180.941 170.87 181.383 177.603C181.383 177.603 181.383 177.648 181.383 177.74C181.383 177.832 181.383 177.884 181.383 177.987V178.045C181.642 182.378 183.237 217.157 170.506 225.652Z" fill="black"/>
<path opacity="0.2" d="M171.482 157.725C172.486 158.776 185.476 156.083 187.743 157.289C188.702 157.794 189.121 159.585 190.085 161.548C192.794 165.853 196.606 166.53 196.841 166.565C192.295 163.121 191.026 154.832 193.282 149.592C195.538 144.351 203.614 145.711 204.073 145.866C202.696 145.261 201.215 144.928 199.711 144.885C195.343 144.655 190.016 145.884 188.524 148.65C185.493 154.293 172.498 153.024 171.304 154.505C170.11 155.986 170.477 156.675 171.482 157.725Z" fill="black"/>
<path d="M181.653 152.714C182.443 154.172 182.758 155.839 182.554 157.484L171.551 158.724C170.988 158.073 170.572 157.308 170.332 156.482C170.091 155.656 170.031 154.788 170.156 153.937C170.156 153.937 181.056 152.84 181.653 152.714Z" fill="#263238"/>
<path d="M215.066 152.307C215.066 152.307 216.162 149.976 214.847 148.501C217.786 148.237 219.606 147.927 221.5 147.651C221.781 148.507 221.919 149.327 220.926 150.63C219.933 151.933 215.066 152.307 215.066 152.307Z" fill="#263238"/>
<path d="M221.179 166.892C223.084 169.997 224.714 174.968 224.858 182.906" stroke="#FF4B4E" stroke-linecap="round" stroke-linejoin="round"/>
<path d="M214.905 161.772C216.291 162.093 217.566 162.781 218.596 163.764" stroke="#FF4B4E" stroke-linecap="round" stroke-linejoin="round"/>
<path d="M129.304 131.849L136.548 132.733C136.548 132.733 137.811 146.044 138.982 148.633C138.982 148.633 161.259 151.698 170.391 151.428L175.023 154.574L175.184 160.05L170.644 160.182L169.18 156.738C169.18 156.738 166.115 156.606 165.409 154.878C165.409 154.878 141.737 160.618 133.018 154.074C133.024 154.051 127.76 146.331 129.304 131.849Z" fill="#FFC3BD"/>
<path opacity="0.2" d="M188.288 234.262C188.495 241.483 193.225 247.2 198.856 247.039C199.613 247.017 200.362 246.887 201.083 246.655C205.595 245.22 208.843 239.899 208.665 233.671C208.487 227.644 205.164 222.662 200.796 221.278C199.923 220.998 199.009 220.867 198.092 220.894C192.461 221.06 188.076 227.064 188.288 234.262Z" fill="#FAFAFA"/>
<path d="M193.472 234.262C193.65 240.427 196.916 245.495 201.083 246.672C205.595 245.237 208.843 239.916 208.665 233.688C208.487 227.661 205.164 222.679 200.796 221.295C196.456 222.472 193.294 227.879 193.472 234.262Z" fill="#263238"/>
<path opacity="0.2" d="M99.8465 234.836C100.059 242.057 104.789 247.78 110.414 247.613C111.171 247.594 111.921 247.464 112.641 247.229C117.158 245.794 120.407 240.479 120.223 234.245C120.051 228.224 116.728 223.236 112.36 221.852C111.487 221.572 110.573 221.441 109.656 221.468C104.025 221.634 99.6398 227.627 99.8465 234.836Z" fill="#FAFAFA"/>
<path d="M105.03 234.836C105.213 240.995 108.474 246.064 112.641 247.24C117.158 245.805 120.407 240.49 120.223 234.256C120.051 228.235 116.728 223.247 112.36 221.864C108.014 223.04 104.846 228.448 105.03 234.836Z" fill="#263238"/>
<path d="M90.9725 215.814C90.8749 222.914 101.683 227.615 119.77 230.577C124.645 231.434 129.628 231.492 134.522 230.749C142.558 229.423 146.484 226.025 146.484 226.025C146.484 226.025 144.441 201.487 124.219 198.376C110.443 196.263 100.076 201.82 94.8183 207.806C92.3443 210.619 91.0012 213.541 90.9725 215.814Z" fill="#FF4B4E"/>
<path opacity="0.3" d="M90.9725 215.814C90.8749 222.914 101.683 227.615 119.77 230.577C124.645 231.434 129.628 231.492 134.522 230.749C133.655 224.085 129.763 206.607 112.848 204.793C105.173 203.966 99.2496 205.516 94.8183 207.806C92.3443 210.619 91.0012 213.541 90.9725 215.814Z" fill="black"/>
<g opacity="0.3">
<path d="M145.313 226.134C144.941 222.794 144.144 219.515 142.942 216.376C141.761 213.205 140.129 210.221 138.098 207.514C137.072 206.168 135.918 204.925 134.654 203.8C133.401 202.657 132.02 201.663 130.538 200.838C127.59 199.176 124.323 198.156 120.952 197.848C122.604 198.124 124.229 198.543 125.809 199.099C126.606 199.34 127.358 199.713 128.105 200.029C128.853 200.387 129.583 200.784 130.291 201.217C131.015 201.63 131.681 202.13 132.364 202.595C133.047 203.06 133.678 203.611 134.281 204.19C135.506 205.304 136.623 206.532 137.616 207.858C139.632 210.513 141.276 213.431 142.5 216.531C143.136 218.076 143.684 219.655 144.142 221.261C144.629 222.861 145.02 224.488 145.313 226.134Z" fill="black"/>
</g>
<path d="M172.452 218.029L171.258 222.082L158.739 221.037L158.572 215.372L172.452 218.029Z" fill="#FF4B4E"/>
<path d="M90.6953 137.234L96.5272 143.066L86.8828 148.656L105.93 147.391L100.098 141.559L109.738 135.965L90.6953 137.234Z" fill="white"/>
<rect x="97.9888" y="136.081" width="0.64741" height="5.66484" rx="0.323705" fill="#FF4B4E"/>
<rect x="97.9888" y="143.041" width="0.64741" height="5.66484" rx="0.323705" fill="#FF4B4E"/>
</svg>
