<svg width="32" height="32" viewBox="0 0 32 32" fill="none" xmlns="http://www.w3.org/2000/svg">
<path d="M18 12.9998C18 12.4475 17.5523 11.9998 17 11.9998H9C8.44772 11.9998 8 12.4475 8 12.9998C8 13.5521 8.44772 13.9998 9 13.9998H17C17.5523 13.9998 18 13.5521 18 12.9998Z" fill="#827D89"/>
<path d="M16.6667 16.9998C16.6667 16.4475 16.219 15.9998 15.6667 15.9998H9C8.44772 15.9998 8 16.4475 8 16.9998C8 17.5521 8.44772 17.9998 9 17.9998H15.6667C16.219 17.9998 16.6667 17.5521 16.6667 16.9998Z" fill="#827D89"/>
<path d="M17 19.9998C17.5523 19.9998 18 20.4475 18 20.9998C18 21.5521 17.5523 21.9998 17 21.9998H9C8.44772 21.9998 8 21.5521 8 20.9998C8 20.4475 8.44772 19.9998 9 19.9998H17Z" fill="#827D89"/>
<path fill-rule="evenodd" clip-rule="evenodd" d="M8 28.9998H25.3333C27.3584 28.9998 29 27.3582 29 25.3331V17.9998C29 17.4475 28.5523 16.9998 28 16.9998H23.6667V6.59071C23.6667 4.69284 21.5215 3.58888 19.9771 4.69199L19.7437 4.85871C18.7031 5.60203 17.2934 5.59953 16.2479 4.85272C14.5094 3.61094 12.1572 3.61094 10.4188 4.85272C9.37322 5.59953 7.96361 5.60203 6.92295 4.85871L6.68956 4.69199C5.1452 3.58888 3 4.69284 3 6.59071V23.9998C3 26.7612 5.23858 28.9998 8 28.9998ZM11.5812 6.48019C12.6243 5.73512 14.0423 5.73512 15.0854 6.48019C16.8215 7.72022 19.1653 7.72969 20.9062 6.48617L21.1396 6.31946C21.3602 6.16187 21.6667 6.31958 21.6667 6.59071V25.3331C21.6667 25.9333 21.8109 26.4997 22.0665 26.9998H8C6.34315 26.9998 5 25.6566 5 23.9998V6.59071C5 6.31958 5.30646 6.16187 5.52708 6.31946L5.76048 6.48617C7.5014 7.72969 9.8452 7.72022 11.5812 6.48019ZM23.6667 25.3331V18.9998H27V25.3331C27 26.2536 26.2538 26.9998 25.3333 26.9998C24.4129 26.9998 23.6667 26.2536 23.6667 25.3331Z" fill="#827D89"/>
</svg>
