<svg width="32" height="32" viewBox="0 0 32 32" fill="none" xmlns="http://www.w3.org/2000/svg">
<path fill-rule="evenodd" clip-rule="evenodd" d="M25.3333 28.6666H7.99994C5.42261 28.6666 3.33327 26.5773 3.33327 24V6.59087C3.33327 5.16747 4.74106 4.26507 5.97981 4.69514C6.15677 4.75658 6.33028 4.84521 6.49575 4.9634L6.72915 5.13011C7.88651 5.9568 9.45183 5.95314 10.6124 5.12413C12.235 3.96513 14.4315 3.96513 16.0541 5.12413C17.2147 5.95314 18.78 5.9568 19.9374 5.13011L20.1708 4.9634C21.4945 4.01787 23.3333 4.96412 23.3333 6.59087V16.6666H27.9999C28.5522 16.6666 28.9999 17.1143 28.9999 17.6666V24.9999C28.9999 27.025 27.3583 28.6666 25.3333 28.6666ZM23.6666 18.6666V24.9999C23.6666 25.9204 24.4128 26.6666 25.3333 26.6666C26.2537 26.6666 26.9999 25.9204 26.9999 24.9999V18.6666H23.6666ZM17.9999 12.9999C17.9999 12.4477 17.5522 11.9999 16.9999 11.9999H8.99994C8.44766 11.9999 7.99994 12.4477 7.99994 12.9999C7.99994 13.5522 8.44766 13.9999 8.99994 13.9999H16.9999C17.5522 13.9999 17.9999 13.5522 17.9999 12.9999ZM16.6666 16.9999C16.6666 16.4477 16.2189 15.9999 15.6666 15.9999H8.99994C8.44766 15.9999 7.99994 16.4477 7.99994 16.9999C7.99994 17.5522 8.44766 17.9999 8.99994 17.9999H15.6666C16.2189 17.9999 16.6666 17.5522 16.6666 16.9999ZM16.9999 19.9999C17.5522 19.9999 17.9999 20.4477 17.9999 20.9999C17.9999 21.5522 17.5522 21.9999 16.9999 21.9999H8.99994C8.44766 21.9999 7.99994 21.5522 7.99994 20.9999C7.99994 20.4477 8.44766 19.9999 8.99994 19.9999H16.9999Z" fill="#FF4B4E"/>
</svg>
