<svg width="339" height="199" viewBox="0 0 339 199" fill="none" xmlns="http://www.w3.org/2000/svg">
<g clip-path="url(#clip0_37_374)">
<path d="M54.8838 22.6704C52.1622 22.6735 49.5531 23.7542 47.6286 25.6756C45.7042 27.597 44.6217 30.202 44.6187 32.9192V144.341C44.6217 147.058 45.7042 149.663 47.6286 151.585C49.5531 153.506 52.1622 154.587 54.8838 154.59H286.2C288.922 154.587 291.531 153.506 293.455 151.585C295.38 149.663 296.462 147.058 296.465 144.341V32.9192C296.462 30.202 295.38 27.597 293.455 25.6756C291.531 23.7542 288.922 22.6735 286.2 22.6704H54.8838Z" fill="white"/>
<path d="M286.2 154.99H54.8838C52.0561 154.987 49.3451 153.864 47.3457 151.867C45.3462 149.871 44.2215 147.164 44.2183 144.341V32.9193C44.2215 30.0961 45.3462 27.3895 47.3457 25.3932C49.3451 23.3969 52.0561 22.274 54.8838 22.2708H286.2C289.028 22.274 291.739 23.3969 293.738 25.3932C295.738 27.3895 296.862 30.0961 296.866 32.9193V144.341C296.862 147.164 295.738 149.871 293.738 151.867C291.739 153.864 289.028 154.987 286.2 154.99ZM54.8838 23.0703C52.2684 23.0732 49.761 24.1118 47.9116 25.9582C46.0622 27.8047 45.022 30.3081 45.019 32.9193V144.341C45.022 146.952 46.0622 149.456 47.9116 151.302C49.761 153.149 52.2684 154.187 54.8838 154.19H286.2C288.816 154.187 291.323 153.149 293.172 151.302C295.022 149.456 296.062 146.952 296.065 144.341V32.9193C296.062 30.3081 295.022 27.8047 293.172 25.9582C291.323 24.1118 288.816 23.0732 286.2 23.0703H54.8838Z" fill="#3F3D56"/>
<path d="M121.628 148.748C121.646 148.301 120.273 147.883 118.562 147.816C116.85 147.748 115.449 148.056 115.431 148.503C115.413 148.95 116.786 149.368 118.497 149.436C120.209 149.504 121.61 149.196 121.628 148.748Z" fill="#E6E6E6"/>
<path d="M141.369 147.705C141.386 147.257 140.013 146.84 138.302 146.772C136.591 146.704 135.189 147.012 135.171 147.459C135.153 147.907 136.526 148.324 138.238 148.392C139.949 148.46 141.351 148.152 141.369 147.705Z" fill="#3F3D56"/>
<path d="M114.043 142.667C114.061 142.22 112.688 141.802 110.977 141.734C109.266 141.666 107.864 141.974 107.846 142.422C107.828 142.869 109.201 143.287 110.913 143.354C112.624 143.422 114.026 143.114 114.043 142.667Z" fill="#FF4B4E"/>
<path d="M104.509 140.445C104.555 140.046 103.978 139.652 103.221 139.566C102.464 139.48 101.813 139.734 101.768 140.133C101.722 140.533 102.299 140.927 103.056 141.013C103.813 141.099 104.463 140.845 104.509 140.445Z" fill="#E6E6E6"/>
<path d="M99.9533 135.787C99.9989 135.388 99.4221 134.994 98.6651 134.908C97.9081 134.822 97.2574 135.076 97.2118 135.475C97.1662 135.874 97.743 136.268 98.5 136.354C99.257 136.44 99.9077 136.186 99.9533 135.787Z" fill="#3F3D56"/>
<path d="M125.699 143.719C125.745 143.319 125.168 142.926 124.411 142.84C123.654 142.753 123.003 143.007 122.957 143.407C122.912 143.806 123.489 144.2 124.246 144.286C125.003 144.372 125.653 144.118 125.699 143.719Z" fill="#E6E6E6"/>
<path d="M116.664 145.701C116.71 145.302 116.133 144.908 115.376 144.822C114.619 144.736 113.968 144.99 113.923 145.389C113.877 145.789 114.454 146.182 115.211 146.268C115.968 146.354 116.619 146.1 116.664 145.701Z" fill="#FF4B4E"/>
<path d="M131.278 148.894C131.323 148.495 130.746 148.101 129.989 148.015C129.232 147.929 128.582 148.183 128.536 148.582C128.491 148.982 129.067 149.375 129.824 149.461C130.581 149.548 131.232 149.294 131.278 148.894Z" fill="#3F3D56"/>
<path d="M2.10887e-06 132.364C-0.000184502 132.427 0.0120153 132.489 0.0358954 132.546C0.0597755 132.604 0.0948683 132.657 0.139152 132.701C0.183436 132.745 0.236035 132.78 0.29393 132.804C0.351825 132.828 0.413869 132.84 0.476494 132.84H338.524C338.65 132.84 338.771 132.79 338.861 132.701C338.95 132.611 339 132.49 339 132.364C339 132.238 338.95 132.117 338.861 132.028C338.771 131.939 338.65 131.888 338.524 131.888H0.47647C0.413848 131.888 0.351809 131.9 0.293918 131.924C0.236027 131.948 0.183427 131.983 0.139146 132.027C0.0948652 132.072 0.0597748 132.124 0.0358954 132.182C0.0120161 132.24 -0.000182361 132.302 2.10887e-06 132.364Z" fill="#CCCCCC"/>
<path d="M115.549 123.96C115.318 123.97 115.09 123.91 114.896 123.787C114.701 123.664 114.549 123.484 114.46 123.271C114.371 123.059 114.35 122.825 114.399 122.6C114.448 122.375 114.565 122.171 114.734 122.014L114.811 121.709C114.801 121.684 114.791 121.66 114.78 121.635C114.548 121.088 114.16 120.622 113.663 120.295C113.167 119.968 112.584 119.794 111.989 119.796C111.394 119.799 110.813 119.976 110.319 120.307C109.825 120.638 109.44 121.107 109.212 121.656C108.301 123.846 107.142 126.039 106.856 128.355C106.731 129.378 106.784 130.416 107.013 131.421C104.874 126.763 103.764 121.7 103.756 116.575C103.756 115.289 103.828 114.004 103.971 112.726C104.089 111.678 104.253 110.638 104.463 109.605C105.61 104.001 108.071 98.7491 111.646 94.2796C113.376 93.3372 114.775 91.8879 115.654 90.1272C115.973 89.4942 116.198 88.8186 116.323 88.1212C116.128 88.1468 115.587 85.1794 115.734 84.9973C115.462 84.5853 114.976 84.3805 114.679 83.9784C113.201 81.9788 111.166 82.3279 110.104 85.0453C107.834 86.189 107.812 88.0857 109.205 89.91C110.091 91.0705 110.213 92.641 110.99 93.8835C110.91 93.9857 110.827 94.0847 110.747 94.187C109.285 96.064 108.01 98.0796 106.942 100.205C107.202 97.8239 106.892 95.4155 106.037 93.1776C105.172 91.092 103.549 89.3355 102.119 87.5324C100.402 85.3667 96.882 86.3119 96.5795 89.0573C96.5766 89.0838 96.5737 89.1104 96.5709 89.137C96.7832 89.2565 96.9911 89.3835 97.1944 89.5177C97.4498 89.6881 97.6478 89.9316 97.7622 90.2162C97.8767 90.5008 97.9024 90.8133 97.836 91.1128C97.7695 91.4122 97.614 91.6847 97.3899 91.8944C97.1657 92.1041 96.8833 92.2413 96.5796 92.288L96.5486 92.2928C96.6242 93.0567 96.7579 93.8138 96.9485 94.5575C95.1149 101.637 99.0735 104.216 104.726 104.332C104.851 104.395 104.972 104.459 105.097 104.52C104.024 107.557 103.35 110.72 103.094 113.93C102.949 115.824 102.958 117.726 103.12 119.619L103.11 119.552C102.701 117.447 101.576 115.549 99.9269 114.176C97.4772 112.167 94.0163 111.427 91.3735 109.812C91.0927 109.632 90.7661 109.536 90.4323 109.535C90.0985 109.534 89.7715 109.629 89.4898 109.807C89.208 109.986 88.9833 110.242 88.8422 110.544C88.7011 110.846 88.6494 111.181 88.6932 111.512C88.6967 111.535 88.7004 111.559 88.704 111.582C89.098 111.743 89.4816 111.927 89.8525 112.135C90.0648 112.255 90.2726 112.381 90.476 112.516C90.7314 112.686 90.9293 112.93 91.0438 113.214C91.1583 113.499 91.184 113.811 91.1175 114.111C91.0511 114.41 90.8956 114.683 90.6714 114.892C90.4472 115.102 90.1649 115.239 89.8612 115.286L89.8301 115.291C89.8077 115.294 89.7885 115.297 89.7662 115.3C90.4393 116.905 91.3841 118.382 92.5591 119.667C93.7056 125.847 98.6298 126.433 103.897 124.634H103.9C104.478 127.141 105.316 129.582 106.399 131.916H115.325C115.357 131.817 115.386 131.715 115.414 131.616C114.588 131.668 113.759 131.619 112.945 131.469C113.607 130.658 114.269 129.84 114.931 129.029C114.946 129.014 114.96 128.998 114.973 128.981C115.309 128.566 115.648 128.154 115.984 127.738L115.984 127.738C116.002 126.465 115.855 125.195 115.549 123.96Z" fill="#F2F2F2"/>
<path d="M70.99 119.015C70.6166 119.032 70.2471 118.934 69.9313 118.735C69.6156 118.535 69.3689 118.244 69.2248 117.899C69.0806 117.555 69.0459 117.175 69.1254 116.81C69.2048 116.446 69.3946 116.114 69.6691 115.861C69.715 115.679 69.748 115.548 69.7939 115.365C69.7775 115.326 69.761 115.286 69.7443 115.246C69.3683 114.36 68.7381 113.603 67.9329 113.073C67.1278 112.542 66.1836 112.261 65.219 112.265C64.2544 112.269 63.3123 112.557 62.5111 113.093C61.71 113.629 61.0854 114.39 60.716 115.28C59.2393 118.831 57.3593 122.388 56.8964 126.142C56.6926 127.801 56.7786 129.484 57.1506 131.114C53.6824 123.56 51.8815 115.351 51.8699 107.041C51.8691 104.956 51.9852 102.873 52.2174 100.801C52.4094 99.1018 52.6757 97.4151 53.0163 95.7405C54.8752 86.6545 58.8663 78.1383 64.6619 70.8912C67.4669 69.3632 69.7354 67.0133 71.1616 64.1584C71.6783 63.1322 72.0434 62.0366 72.2457 60.9059C71.9293 60.9474 71.0526 56.1359 71.2913 55.8407C70.8503 55.1727 70.0611 54.8406 69.5795 54.1886C67.1843 50.9464 63.8843 51.5125 62.1615 55.9185C58.4814 57.7729 58.4458 60.8483 60.7039 63.8062C62.1405 65.688 62.3379 68.2343 63.5985 70.249C63.4687 70.4147 63.3339 70.5753 63.2042 70.7411C60.8336 73.7845 58.7674 77.0526 57.0353 80.4985C57.4565 76.6381 56.9538 72.733 55.5684 69.1045C54.1644 65.7228 51.5328 62.8747 49.2153 59.9512C46.4316 56.4397 40.7234 57.9722 40.233 62.4236C40.2283 62.4667 40.2237 62.5098 40.2191 62.5529C40.5633 62.7468 40.9003 62.9525 41.23 63.1703C41.6441 63.4465 41.9651 63.8413 42.1507 64.3028C42.3363 64.7643 42.378 65.271 42.2702 65.7565C42.1625 66.242 41.9104 66.6838 41.5469 67.0238C41.1834 67.3638 40.7255 67.5863 40.2332 67.6621L40.1828 67.6698C40.3054 68.9085 40.5222 70.136 40.8312 71.3418C37.8582 82.8211 44.2768 87.0021 53.4416 87.1899C53.6439 87.2935 53.8411 87.397 54.0434 87.4955C52.3032 92.4193 51.2116 97.5482 50.7961 102.753C50.5609 105.824 50.5748 108.909 50.8376 111.977L50.8221 111.868C50.158 108.456 48.3349 105.377 45.6606 103.152C41.6886 99.8942 36.077 98.6946 31.7919 96.0761C29.7292 94.8156 27.086 96.4445 27.446 98.8321C27.4517 98.8702 27.4575 98.9084 27.4635 98.9465C28.1023 99.2062 28.7242 99.5054 29.3257 99.8424C29.6699 100.036 30.0069 100.242 30.3366 100.46C30.7507 100.736 31.0717 101.131 31.2573 101.592C31.4429 102.054 31.4846 102.56 31.3768 103.046C31.2691 103.532 31.017 103.973 30.6535 104.313C30.29 104.653 29.8321 104.876 29.3398 104.952L29.2894 104.959C29.2531 104.965 29.2219 104.97 29.1857 104.975C30.2771 107.577 31.809 109.972 33.7142 112.055C35.5731 122.076 43.5574 123.026 52.0981 120.108H52.1033C53.0404 124.174 54.3981 128.131 56.1546 131.917H70.6273C70.6792 131.756 70.7258 131.59 70.7725 131.43C69.4329 131.514 68.088 131.434 66.7679 131.192C67.8417 129.876 68.9154 128.55 69.9892 127.235C70.0132 127.21 70.0357 127.184 70.0567 127.157C70.6013 126.484 71.1512 125.816 71.6959 125.142L71.6962 125.142C71.7252 123.078 71.488 121.019 70.9904 119.015L70.99 119.015Z" fill="#F2F2F2"/>
<path d="M269.059 7.21172C268.087 -0.223657 250.91 0.250651 249.288 7.24613C248.427 6.70886 246.239 7.08074 245.422 7.69829C244.606 8.31585 244.083 9.2237 243.571 10.105C242.872 11.329 242.147 12.5969 241.992 14.0004C241.83 15.4012 242.382 16.988 243.654 17.6117C244.663 18.1088 246.883 17.7731 247.992 17.5506C248.766 17.397 249.416 17.2624 249.968 17.1304C250.153 16.2598 250.025 15.3518 249.607 14.5659C250.052 14.6542 250.473 14.84 250.838 15.1098C251.203 15.3795 251.504 15.7267 251.719 16.1263C251.806 16.2937 254.953 39.946 254.953 39.946C255.814 40.0495 256.682 40.0712 257.546 40.0106C258.083 37.0997 258.18 34.1251 257.836 31.1854C258.747 32.8656 259.468 34.6421 259.985 36.4818C260.282 37.5108 260.525 38.5542 260.715 39.608C268.205 38.2097 278.329 33.3934 280.177 25.2153C280.166 25.1889 280.156 25.1626 280.146 25.1362C280.045 24.8863 280.034 24.6091 280.115 24.3521C280.197 24.0951 280.365 23.8743 280.591 23.7275C280.818 23.5807 281.088 23.517 281.356 23.5474C281.624 23.5778 281.874 23.7004 282.061 23.8941C282.287 24.1261 282.489 24.3244 282.659 24.4781C282.002 19.2554 278.034 14.5558 269.059 7.21172Z" fill="#2F2E41"/>
<path d="M159.699 189.311L155.5 187.119L162.159 169.545L168.356 172.78L159.699 189.311Z" fill="#A0616A"/>
<path d="M142.756 189.099C142.496 189.597 142.444 190.177 142.612 190.712C142.78 191.247 143.154 191.694 143.651 191.954L152 196.312L154.992 194.092L154 197.353L157.149 199L161.813 187.942L160.75 187.306L156.418 184.701L155.02 183.863L153.448 186.864L144.373 187.981C144.033 188.023 143.708 188.146 143.426 188.341C143.145 188.536 142.915 188.796 142.756 189.099Z" fill="#2F2E41"/>
<path d="M155.397 124.613L152.343 120.996L165.175 107.25L169.683 112.589L155.397 124.613Z" fill="#A0616A"/>
<path d="M139.798 118.007C139.369 118.369 139.101 118.886 139.053 119.445C139.005 120.004 139.181 120.559 139.543 120.988L145.616 128.179L149.227 127.256L147.071 129.899L149.36 132.614L157.873 124.145L157.131 123.154L154.111 119.105L153.134 117.801L150.542 119.983L141.719 117.583C141.388 117.494 141.04 117.485 140.706 117.559C140.371 117.633 140.06 117.787 139.798 118.007Z" fill="#2F2E41"/>
<path d="M290.097 111.059C290.097 111.059 303.064 138.77 249.365 131.303C249.365 131.303 220.755 99.6473 221.582 95.8386C221.582 95.8386 209.405 83.485 210.001 83.2601C210.597 83.0352 210.964 82.5468 209.98 82.5911C208.995 82.6355 208.995 81.1722 208.995 81.1722C208.995 81.1722 186.989 104.999 168.46 116.822L162.053 109.627C162.053 109.627 164.552 101.824 165.753 101.824C166.954 101.824 167.368 102.112 167.562 100.569C167.755 99.0255 166.798 97.7003 168.077 97.5634C169.357 97.4265 195.866 66.4935 195.866 66.4935C195.866 66.4935 198.726 56.3049 207.464 58.277C216.202 60.2491 261.609 97.107 261.609 97.107L290.097 111.059Z" fill="#2F2E41"/>
<path d="M268.23 132.201L197.288 131.613L166.458 180.384L157.745 175.779L159.676 174.965C159.676 174.965 159.092 168.186 159.808 166.47C160.524 164.754 162.655 165.271 162.655 165.271L180.63 123.884C181.87 120.211 184.305 117.057 187.548 114.925C190.791 112.794 194.655 111.807 198.525 112.122C213.398 109.957 237.542 111.687 262.624 113.812L268.23 132.201Z" fill="#2F2E41"/>
<path d="M227.157 49.1993C228.507 49.406 229.723 50.1305 230.547 51.2189C231.37 52.3072 231.736 53.6734 231.566 55.0267C231.527 55.3013 231.465 55.5721 231.381 55.8365L245.958 66.876L242.95 76.2318L224.619 58.9536C223.548 58.5224 222.65 57.7492 222.065 56.7547C221.48 55.7603 221.242 54.6005 221.386 53.4564C221.475 52.8062 221.691 52.1798 222.022 51.6129C222.353 51.046 222.793 50.5498 223.316 50.1527C223.839 49.7555 224.436 49.465 225.071 49.298C225.707 49.1309 226.369 49.0905 227.021 49.179C227.066 49.1851 227.111 49.1919 227.157 49.1993Z" fill="#A0616A"/>
<path d="M291.465 49.8884L286.223 64.3755L265.727 93.2939C265.727 93.2939 265.559 93.2219 265.255 93.094C263.493 92.3345 257.095 89.5442 251.077 86.3741C245.428 83.3959 240.106 80.0819 239.281 77.8033C239.193 77.5635 239.113 77.3316 239.041 77.1078V77.1038C238.657 75.9434 238.416 74.7406 238.325 73.5219C238.256 72.5825 238.317 72.0788 238.188 72.0189C238.088 71.9749 237.88 72.1908 237.42 72.6785C237.388 72.7104 237.36 72.7424 237.328 72.7704C235.662 74.4374 233.616 74.2215 234.116 73.43C234.629 72.6185 234.361 72.6345 233.608 71.787C233.047 71.1554 231.226 68.6849 230.329 67.4656C230.02 67.0459 229.824 66.7741 229.824 66.7741L230.133 66.2904L230.985 64.9552L235.041 58.607L235.266 58.2592C235.266 58.2592 243.602 60.1821 244.711 62.009C245.824 63.8358 243.033 63.7759 245.824 63.8358C248.615 63.8958 251.461 60.1061 249.423 63.8758C247.385 67.6415 247.922 68.9567 250.444 68.3611C251.469 68.1172 253.091 68.8888 254.653 69.8882V69.8922C255.629 70.5256 256.571 71.2101 257.475 71.9429C258.44 72.7184 259.093 73.306 259.093 73.306L274.924 41.2376L276.678 37.6878C277.213 36.6076 277.957 35.6447 278.869 34.8553C279.781 34.0659 280.841 33.466 281.987 33.0906L282.536 34.046C285.951 39.0679 288.938 44.3673 291.465 49.8884Z" fill="#FF4B4E"/>
<path d="M292.341 95.8684C297.194 96.9957 292.031 132.264 286.247 132.374C244.206 133.174 257.007 109.624 254.752 107.369C252.498 105.111 250.464 106.73 252.498 103.216C253.98 100.657 256.178 101.037 256.21 99.6021C256.226 99.0664 255.942 98.2829 255.205 96.9957C252.498 92.2626 252.498 90.8515 252.498 90.8515C251.824 89.4302 251.345 87.924 251.077 86.3742C250.638 84.0697 250.584 81.7086 250.917 79.3864C251.425 75.9799 252.702 72.7333 254.652 69.8922V69.8882C254.857 69.5844 255.069 69.2766 255.293 68.9728C255.802 68.2812 258.62 68.4131 258.62 68.4131L264.626 43.2285L261.151 33.1866L277.611 25.4873L281.987 33.0907L282.536 34.0461C285.951 39.0679 288.938 44.3674 291.464 49.8884C293.895 55.2891 295.893 61.2855 295.965 66.5023C296.157 80.106 293.807 84.1515 293.807 84.1515C293.807 84.1515 299.512 88.4089 296.658 91.0114C293.807 93.6178 287.489 94.7411 292.341 95.8684Z" fill="#FF4B4E"/>
<path d="M217.773 45.8859L215.087 47.9228C214.556 48.3278 214.208 48.9262 214.119 49.587C214.03 50.2477 214.206 50.9169 214.61 51.448L221.078 59.9363L224.897 64.9442C225.302 65.473 225.901 65.82 226.562 65.9092C227.222 65.9984 227.892 65.8224 228.423 65.4199L231.111 63.3805C231.64 62.9744 231.986 62.3763 232.075 61.7166C232.163 61.0568 231.988 60.3887 231.585 59.8578L231.189 59.3347L223.354 49.0561L221.298 46.3616C221.098 46.0992 220.848 45.8787 220.562 45.7127C220.277 45.5468 219.961 45.4386 219.634 45.3944C219.307 45.3503 218.974 45.3709 218.654 45.4553C218.335 45.5396 218.035 45.6859 217.773 45.8859Z" fill="#3F3D56"/>
<path d="M219.177 45.732L216.284 47.7471C216.029 47.9137 215.812 48.1324 215.648 48.3887C215.483 48.6451 215.375 48.9333 215.331 49.2344C215.286 49.5355 215.306 49.8426 215.389 50.1355C215.472 50.4284 215.616 50.7004 215.812 50.9336L219.599 55.4892L221.617 57.9161L222.963 59.5352L225.974 63.1574C226.4 63.6434 226.99 63.956 227.632 64.0357C228.274 64.1154 228.922 63.9566 229.454 63.5896L231.622 62.0797L232.344 61.5774C232.703 61.338 232.984 60.9979 233.15 60.5998C233.317 60.2017 233.362 59.7633 233.28 59.3397C233.207 58.9877 233.048 58.6594 232.816 58.3844L223.919 47.6793L222.657 46.1642C222.232 45.6776 221.642 45.3645 221 45.2847C220.358 45.205 219.709 45.3643 219.177 45.732Z" fill="#FF4B4E"/>
<path d="M221.026 56.9833C222.376 57.1899 223.592 57.9145 224.416 59.0028C225.239 60.0911 225.605 61.4573 225.435 62.8107C225.396 63.0852 225.334 63.3561 225.251 63.6205L239.828 74.6599L236.82 84.0158L218.488 66.7375C217.417 66.3063 216.519 65.5331 215.934 64.5387C215.349 63.5442 215.111 62.3844 215.256 61.2403C215.344 60.5901 215.56 59.9637 215.891 59.3968C216.222 58.83 216.662 58.3338 217.185 57.9366C217.709 57.5394 218.305 57.249 218.941 57.0819C219.576 56.9148 220.239 56.8744 220.89 56.9629C220.935 56.9691 220.981 56.9758 221.026 56.9833Z" fill="#A0616A"/>
<path d="M280.478 40.6112C281.752 40.8702 282.955 41.4001 284.006 42.165C285.057 42.9298 285.93 43.9115 286.567 45.0435C287.204 46.1755 287.589 47.4311 287.696 48.7249C287.803 50.0187 287.63 51.3205 287.189 52.5416L280.094 72.1587L259.595 101.08C259.595 101.08 235.011 90.7119 233.15 85.5874C231.288 80.4628 232.969 78.6946 231.288 80.4628C229.608 82.2311 227.476 82.0214 227.987 81.2122C228.497 80.4031 228.228 80.4203 227.477 79.5726C226.726 78.7249 223.694 74.5594 223.694 74.5594L229.134 66.0441C229.134 66.0441 237.471 67.9655 238.582 69.7936C239.692 71.6216 236.901 71.5618 239.692 71.6216C242.484 71.6814 245.332 67.8903 243.293 71.6589C241.253 75.4275 241.791 76.7414 244.314 76.1442C246.837 75.5471 252.96 81.0909 252.96 81.0909L270.549 45.4728C271.434 43.6812 272.887 42.2326 274.684 41.3531C276.48 40.4736 278.517 40.2127 280.478 40.6112Z" fill="#FF4B4E"/>
<path d="M269.988 28.8026C275.084 23.7146 275.084 15.4651 269.988 10.377C264.892 5.28895 256.629 5.28895 251.533 10.377C246.437 15.4651 246.437 23.7146 251.533 28.8026C256.629 33.8907 264.892 33.8907 269.988 28.8026Z" fill="#A0616A"/>
<path d="M276.02 5.39605C275.049 -2.03933 257.871 -1.56502 256.249 5.43046C255.388 4.89318 253.2 5.26507 252.384 5.88262C251.567 6.50018 251.044 7.40803 250.532 8.28931C249.833 9.51337 244.939 13.6546 244.206 12.4472C242.556 9.73 239.32 15.6675 241.804 19.6428C242.399 20.596 253.908 19.0658 255.017 18.8433C254.465 18.9752 255.791 18.6896 255.017 18.8433C255.195 17.9809 256.993 13.5251 256.568 12.7502C257.013 12.8386 257.434 13.0243 257.799 13.2941C258.164 13.5639 258.465 13.911 258.68 14.3106C258.767 14.478 261.914 38.1303 261.914 38.1303C262.775 38.2338 263.643 38.2555 264.507 38.1949C265.044 35.284 265.141 32.3094 264.797 29.3697C265.708 31.0499 266.429 32.8264 266.946 34.6661C267.243 35.6951 267.486 36.7385 267.676 37.7923C275.166 36.394 285.29 31.5777 287.138 23.3996C277.038 20.0425 284.995 12.7401 276.02 5.39605Z" fill="#2F2E41"/>
<path d="M161.795 42.7596C161.963 41.6111 160.758 40.4853 159.104 40.2451C157.451 40.0049 155.974 40.7412 155.807 41.8897C155.64 43.0382 156.844 44.164 158.498 44.4042C160.152 44.6444 161.628 43.9081 161.795 42.7596Z" fill="#E6E6E6"/>
<path d="M181.483 40.8416C181.65 39.6931 180.446 38.5673 178.792 38.3271C177.138 38.0869 175.662 38.8232 175.495 39.9717C175.328 41.1202 176.532 42.246 178.186 42.4862C179.84 42.7264 181.316 41.9901 181.483 40.8416Z" fill="#3F3D56"/>
<path d="M156.404 26.846C156.571 25.6975 155.367 24.5717 153.713 24.3315C152.059 24.0913 150.583 24.8276 150.416 25.9761C150.248 27.1246 151.453 28.2504 153.107 28.4906C154.76 28.7308 156.237 27.9945 156.404 26.846Z" fill="#FF4B4E"/>
<path d="M147.849 20.3275C147.857 19.2732 147.268 18.4139 146.533 18.4084C145.799 18.4028 145.197 19.2531 145.189 20.3074C145.181 21.3618 145.77 22.221 146.505 22.2266C147.239 22.2321 147.841 21.3819 147.849 20.3275Z" fill="#E6E6E6"/>
<path d="M144.948 8.18642C144.956 7.13205 144.367 6.27281 143.632 6.26727C142.898 6.26172 142.296 7.11196 142.288 8.16633C142.28 9.2207 142.869 10.0799 143.603 10.0855C144.338 10.091 144.94 9.24079 144.948 8.18642Z" fill="#3F3D56"/>
<path d="M167.508 29.5541C167.516 28.4997 166.927 27.6405 166.192 27.6349C165.458 27.6294 164.856 28.4796 164.848 29.534C164.84 30.5884 165.429 31.4476 166.164 31.4532C166.898 31.4587 167.5 30.6085 167.508 29.5541Z" fill="#E6E6E6"/>
<path d="M157.994 34.2968C158.002 33.2424 157.413 32.3832 156.678 32.3776C155.944 32.3721 155.342 33.2223 155.334 34.2767C155.326 35.3311 155.915 36.1903 156.65 36.1958C157.384 36.2014 157.986 35.3512 157.994 34.2968Z" fill="#FF4B4E"/>
<path d="M171.238 43.0626C171.246 42.0083 170.657 41.149 169.922 41.1435C169.188 41.1379 168.586 41.9882 168.578 43.0426C168.57 44.0969 169.159 44.9562 169.893 44.9617C170.628 44.9672 171.23 44.117 171.238 43.0626Z" fill="#3F3D56"/>
<path d="M216.688 54.2739C216.868 54.1455 216.753 53.6775 216.432 53.2284C216.11 52.7794 215.704 52.5195 215.524 52.6479C215.344 52.7763 215.459 53.2444 215.781 53.6934C216.102 54.1424 216.508 54.4023 216.688 54.2739Z" fill="#3F3D56"/>
<path d="M215.487 52.6748C215.667 52.5464 215.552 52.0783 215.231 51.6293C214.909 51.1803 214.503 50.9204 214.323 51.0488C214.143 51.1772 214.258 51.6453 214.579 52.0943C214.901 52.5433 215.307 52.8032 215.487 52.6748Z" fill="#3F3D56"/>
</g>
<defs>
<clipPath id="clip0_37_374">
<rect width="339" height="199" fill="white"/>
</clipPath>
</defs>
</svg>
