<svg width="32" height="32" viewBox="0 0 32 32" fill="none" xmlns="http://www.w3.org/2000/svg">
<path d="M24.88 23.0665C22.9733 24.4932 19.6533 25.3332 16 25.3332C12.3467 25.3332 9.02666 24.4932 7.12 23.0665C6.62653 22.6932 6.45333 22.0265 6.70666 21.4532L14.7867 3.45317C15 2.97317 15.48 2.6665 16 2.6665C16.52 2.6665 17 2.97317 17.2133 3.45317L25.2933 21.4532C25.5467 22.0265 25.3733 22.6932 24.88 23.0665Z" fill="#D34A4B"/>
<path d="M26.6667 23.9999C26.6667 27.5066 21.3067 29.3333 16 29.3333C10.6933 29.3333 5.33333 27.5066 5.33333 23.9999C5.33333 23.1999 5.63999 22.0133 7.13333 20.9199C7.59999 20.5733 8.25333 20.5866 8.71999 20.9333C10.1333 21.9866 13 22.6666 16 22.6666C19 22.6666 21.8667 21.9866 23.28 20.9333C23.7467 20.5866 24.4 20.5733 24.8667 20.9199C26.36 22.0133 26.6667 23.1999 26.6667 23.9999Z" fill="#FF963E"/>
<path d="M14.6667 19.9999C14.3255 19.9999 13.9844 19.8696 13.724 19.6092C13.2032 19.0884 13.2032 18.2447 13.724 17.7238L16.3907 15.0571C16.9115 14.5363 17.7552 14.5363 18.2761 15.0571C18.7971 15.5779 18.7969 16.4216 18.2761 16.9426L15.6095 19.6092C15.3489 19.8696 15.0079 19.9999 14.6667 19.9999Z" fill="#F96958"/>
</svg>
