<svg width="32" height="32" viewBox="0 0 32 32" fill="none" xmlns="http://www.w3.org/2000/svg">
<path fill-rule="evenodd" clip-rule="evenodd" d="M10.3333 9.99967C10.3333 6.87006 12.8704 4.33301 16 4.33301C19.1296 4.33301 21.6667 6.87006 21.6667 9.99967C21.6667 13.1293 19.1296 15.6663 16 15.6663C12.8704 15.6663 10.3333 13.1293 10.3333 9.99967ZM16 6.33301C13.975 6.33301 12.3333 7.97463 12.3333 9.99967C12.3333 12.0247 13.975 13.6663 16 13.6663C18.025 13.6663 19.6667 12.0247 19.6667 9.99967C19.6667 7.97463 18.025 6.33301 16 6.33301Z" fill="#030303"/>
<path fill-rule="evenodd" clip-rule="evenodd" d="M10.6667 19.6663C9.00982 19.6663 7.66667 21.0095 7.66667 22.6663V24.2507C7.66667 24.2748 7.68416 24.2954 7.70796 24.2993C13.1996 25.1959 18.8004 25.1959 24.292 24.2993C24.3159 24.2954 24.3333 24.2748 24.3333 24.2507V22.6663C24.3333 21.0095 22.9902 19.6663 21.3333 19.6663H20.8788C20.8437 19.6663 20.8088 19.6719 20.7754 19.6828L19.6214 20.0596C17.2683 20.828 14.7318 20.828 12.3787 20.0596L11.2246 19.6828C11.1912 19.6719 11.1563 19.6663 11.1212 19.6663H10.6667ZM5.66667 22.6663C5.66667 19.9049 7.90525 17.6663 10.6667 17.6663H11.1212C11.3672 17.6663 11.6116 17.7052 11.8454 17.7816L12.9995 18.1584C14.9492 18.7951 17.0508 18.7951 19.0006 18.1584L20.1546 17.7816C20.3884 17.7052 20.6329 17.6663 20.8788 17.6663H21.3333C24.0948 17.6663 26.3333 19.9049 26.3333 22.6663V24.2507C26.3333 25.255 25.6055 26.1113 24.6143 26.2732C18.9092 27.2046 13.0908 27.2046 7.3857 26.2732C6.39452 26.1113 5.66667 25.255 5.66667 24.2507V22.6663Z" fill="#030303"/>
</svg>
