<svg width="32" height="32" viewBox="0 0 32 32" fill="none" xmlns="http://www.w3.org/2000/svg">
<path d="M13.3333 7.99984V23.9998C13.3333 24.7332 12.7333 25.3332 12 25.3332H9.33333C7.13333 25.3332 5.33333 23.5332 5.33333 21.3332V10.6665C5.33333 8.4665 7.13333 6.6665 9.33333 6.6665H12C12.7333 6.6665 13.3333 7.2665 13.3333 7.99984Z" fill="#FFB132"/>
<path d="M26.6667 10.6665V21.3332C26.6667 23.5332 24.8667 25.3332 22.6667 25.3332H20C19.2667 25.3332 18.6667 24.7332 18.6667 23.9998V7.99984C18.6667 7.2665 19.2667 6.6665 20 6.6665H22.6667C24.8667 6.6665 26.6667 8.4665 26.6667 10.6665Z" fill="#FFAE3E"/>
<path d="M21.3333 7.99984V23.9998C21.3333 26.9465 18.9467 29.3332 16 29.3332C14.5733 29.3332 13.24 28.7732 12.2267 27.7732C11.2267 26.7598 10.6667 25.4265 10.6667 23.9998V7.99984C10.6667 5.05317 13.0533 2.6665 16 2.6665C17.4267 2.6665 18.76 3.2265 19.7733 4.2265C20.7733 5.23984 21.3333 6.57317 21.3333 7.99984Z" fill="#D34A4B"/>
</svg>
