<svg width="32" height="32" viewBox="0 0 32 32" fill="none" xmlns="http://www.w3.org/2000/svg">
<path fill-rule="evenodd" clip-rule="evenodd" d="M13.9818 5.48551C14.881 3.93582 17.119 3.93582 18.0182 5.48551L20.772 10.2313C21.0258 10.6688 21.4646 10.9673 21.9646 11.0428L26.5375 11.7335C28.5308 12.0346 29.23 14.5513 27.6776 15.8375L24.3458 18.5979C23.8781 18.9853 23.6582 19.5965 23.7718 20.1931L24.7051 25.0944C25.0707 27.0143 23.0552 28.506 21.3259 27.5954L16.7765 25.2C16.2905 24.9441 15.7095 24.9441 15.2235 25.2L10.6741 27.5954C8.94477 28.506 6.92927 27.0143 7.29486 25.0944L8.22817 20.1931C8.34178 19.5965 8.12188 18.9853 7.65423 18.5979L4.32236 15.8374C2.76998 14.5513 3.46918 12.0346 5.46251 11.7335L10.0354 11.0428C10.5355 10.9673 10.9742 10.6688 11.228 10.2313L13.9818 5.48551ZM16.2883 6.48928C16.1599 6.2679 15.8402 6.2679 15.7117 6.48928L12.9579 11.2351C12.3995 12.1975 11.4342 12.8542 10.3341 13.0204L5.7612 13.7111C5.47644 13.7541 5.37655 14.1136 5.59832 14.2973L8.93019 17.0578C9.95903 17.9102 10.4428 19.2547 10.1929 20.5672L9.25956 25.4685C9.20733 25.7427 9.49526 25.9559 9.74231 25.8258L14.2917 23.4303C15.361 22.8673 16.639 22.8673 17.7083 23.4303L22.2577 25.8258C22.5047 25.9559 22.7927 25.7428 22.7404 25.4685L21.8071 20.5672C21.5572 19.2547 22.041 17.9102 23.0698 17.0578L26.4017 14.2973C26.6235 14.1136 26.5236 13.7541 26.2388 13.7111L21.6659 13.0204C20.5658 12.8542 19.6005 12.1975 19.0421 11.2351L16.2883 6.48928Z" fill="#030303"/>
</svg>
